<svg width="30" height="30" viewBox="0 0 30 30" fill="none" xmlns="http://www.w3.org/2000/svg">
<path d="M6.82501 2.5H5.06251C3.90001 2.5 3.31251 3.9125 4.13751 4.7375L11.3 11.9C11.7864 12.3873 12.3641 12.774 13 13.0377C13.636 13.3015 14.3177 13.4373 15.0063 13.4373C15.6948 13.4373 16.3765 13.3015 17.0125 13.0377C17.6484 12.774 18.2261 12.3873 18.7125 11.9L25.875 4.7375C26.7 3.9125 26.1125 2.5 24.95 2.5H23.1875C22.15 2.5 21.15 2.9125 20.4125 3.65L15.9375 8.125C15.425 8.6375 14.6 8.6375 14.0875 8.125L9.61251 3.65C8.86251 2.9125 7.86251 2.5 6.82501 2.5ZM6.82501 27.4613H5.06251C3.90001 27.4613 3.31251 26.0488 4.13751 25.2238L11.3 18.0613C11.7864 17.5739 12.3641 17.1873 13 16.9235C13.636 16.6597 14.3177 16.5239 15.0063 16.5239C15.6948 16.5239 16.3765 16.6597 17.0125 16.9235C17.6484 17.1873 18.2261 17.5739 18.7125 18.0613L25.875 25.2238C26.7 26.0488 26.1125 27.4613 24.95 27.4613H23.1875C22.15 27.4613 21.15 27.0487 20.4125 26.3112L15.9375 21.8363C15.425 21.3237 14.6 21.3237 14.0875 21.8363L9.61251 26.3112C8.86251 27.0487 7.86251 27.4613 6.82501 27.4613Z" fill="#E03765"/>
</svg>
