<svg width="385" height="350" viewBox="0 0 385 350" fill="none" xmlns="http://www.w3.org/2000/svg">
<g clip-path="url(#clip0_107_527)">
<path d="M209.531 3.85896C191.057 9.54573 174.762 24.7282 158.566 44.6458C163.896 50.4028 167.116 58.4007 167.538 66.9322C167.96 75.4636 165.551 83.8526 160.825 90.3083C156.099 96.7639 149.431 100.775 142.244 101.484C135.057 102.194 127.92 99.546 122.358 94.1061C103.333 121.037 82.5599 149.507 57.206 173.038C-7.34893 232.951 125.404 342.217 209.531 342.217C293.657 342.217 361.856 266.473 361.856 173.038C361.856 79.6029 290.601 -21.0971 209.531 3.85896Z" fill="white"/>
<path d="M139.225 90.9022C150.104 90.9022 158.924 80.4513 158.924 67.5595C158.924 54.6677 150.104 44.2168 139.225 44.2168C128.345 44.2168 119.526 54.6677 119.526 67.5595C119.526 80.4513 128.345 90.9022 139.225 90.9022Z" fill="white"/>
<path d="M327.641 313.9C356.569 313.9 380.02 310.294 380.02 305.845C380.02 301.397 356.569 297.791 327.641 297.791C298.713 297.791 275.263 301.397 275.263 305.845C275.263 310.294 298.713 313.9 327.641 313.9Z" fill="#3F3D56"/>
<path d="M142.313 350C171.241 350 194.691 346.394 194.691 341.946C194.691 337.497 171.241 333.891 142.313 333.891C113.385 333.891 89.9346 337.497 89.9346 341.946C89.9346 346.394 113.385 350 142.313 350Z" fill="#3F3D56"/>
<path d="M330.53 277.801C330.53 277.801 333.345 289.289 335.221 292.253C337.098 295.218 338.661 300.035 337.723 300.776C336.785 301.517 334.908 310.411 337.41 310.782C339.912 311.152 345.541 301.147 345.854 297.812C346.167 294.477 347.417 282.619 347.417 282.619C347.417 282.619 349.606 272.243 346.167 271.501C342.727 270.76 337.41 270.39 337.41 270.39L330.53 277.801Z" fill="#2F2E41"/>
<path d="M317.396 290.03C317.396 290.03 313.331 302.629 312.393 303.37C311.454 304.111 308.014 310.782 314.894 310.782C321.774 310.782 325.527 308.558 325.527 308.558L327.716 305.594C327.716 305.594 327.716 297.812 327.09 296.7C326.465 295.588 327.09 290.03 327.09 290.03H317.396Z" fill="#2F2E41"/>
<path d="M289.564 174.783C289.564 174.783 284.56 214.805 288.938 227.774C293.316 240.744 297.694 244.45 297.694 244.45L330.843 281.136C330.843 281.136 341.163 274.837 340.225 270.76C340.225 270.76 338.036 269.278 337.723 268.166C337.41 267.055 333.345 266.684 333.345 266.684C333.345 266.684 331.469 264.09 331.469 262.608C331.469 261.126 315.207 234.815 309.891 232.962C309.891 232.962 307.076 228.886 307.389 228.145C307.702 227.404 306.451 224.81 306.451 224.81L309.578 210.358L329.279 206.652C329.279 206.652 337.41 172.56 330.53 169.966C323.65 167.372 289.564 174.783 289.564 174.783Z" fill="#2F2E41"/>
<path d="M328.654 200.723L329.28 206.652C329.28 206.652 329.28 222.216 328.654 223.698C328.029 225.181 327.716 227.404 328.654 228.886C329.592 230.368 331.156 234.074 330.53 235.556C329.905 237.039 331.781 278.913 329.28 281.877C326.778 284.842 327.716 288.548 328.029 288.918C328.341 289.289 327.716 290.771 327.716 290.771C327.716 290.771 314.894 293.365 315.832 290.771C316.771 288.177 316.771 286.695 317.396 285.954C318.022 285.213 317.396 284.101 317.396 284.101C317.396 284.101 318.334 272.243 317.396 271.501C316.458 270.76 313.643 235.186 313.643 234.815C313.643 234.445 312.705 233.704 312.705 232.221C312.705 230.739 312.705 225.922 311.142 225.181C309.578 224.439 309.891 206.282 309.891 206.282L328.654 200.723Z" fill="#2F2E41"/>
<path d="M306.451 68.4302C306.451 68.4302 307.702 79.5472 311.454 81.7706C315.207 83.994 317.709 85.1057 317.709 85.1057L314.582 98.0756L313.331 109.193H298.945L291.127 101.781L293.629 89.5526L294.88 87.3291C294.88 87.3291 296.444 79.1767 295.193 76.5827C293.942 73.9887 306.451 68.4302 306.451 68.4302Z" fill="#FFB9B9"/>
<path d="M300.196 95.4816L302.385 100.299C302.385 100.299 303.949 93.6288 306.138 92.5171C308.327 91.4054 313.643 89.5525 313.643 88.0703C313.643 86.588 313.331 82.8823 314.582 82.8823C315.833 82.8823 328.029 87.3291 329.905 88.8114C331.781 90.2937 332.094 91.776 332.094 91.776L328.654 134.391C328.654 134.391 333.658 154.402 332.094 162.184C330.53 169.966 329.28 171.077 325.527 172.189C321.774 173.301 323.963 169.595 313.018 173.301C302.073 177.007 295.193 175.895 292.691 175.895C290.189 175.895 288.626 177.377 288 177.748C287.375 178.118 287.688 175.895 289.877 172.56C292.066 169.225 291.127 163.666 291.127 163.666C291.127 163.666 288.626 154.031 290.189 150.326C291.753 146.62 293.942 141.803 292.066 140.32C290.189 138.838 287.688 127.721 287.688 127.721L280.808 98.8167L294.88 87.3291C294.88 87.3291 294.255 92.5171 296.444 93.6288C298.633 94.7405 300.196 95.4816 300.196 95.4816Z" fill="#575A89"/>
<path d="M282.684 98.4462H280.808C280.808 98.4462 277.68 104.746 277.68 109.193C277.68 113.639 279.244 138.838 279.244 138.838L288.313 149.955L290.502 141.432L291.127 122.533L282.684 98.4462Z" fill="#575A89"/>
<path d="M287.687 137.726C287.687 137.726 277.368 134.391 277.68 139.579C277.993 144.767 279.557 151.067 284.56 152.549C289.564 154.031 291.127 145.879 291.127 145.879C291.127 145.879 291.753 138.468 287.687 137.726Z" fill="#575A89"/>
<path d="M326.465 154.773C326.465 154.773 325.84 171.819 322.087 173.672L331.156 176.266C331.156 176.266 335.534 158.478 334.909 157.737C334.283 156.996 326.465 154.773 326.465 154.773Z" fill="#FFB9B9"/>
<path d="M272.827 120.075L278.197 117.295C278.296 117.243 278.403 117.216 278.512 117.213C278.62 117.211 278.728 117.234 278.829 117.281C278.93 117.327 279.022 117.397 279.1 117.486C279.178 117.575 279.24 117.682 279.284 117.8L285.254 133.995C285.361 134.285 285.367 134.614 285.269 134.909C285.172 135.204 284.979 135.441 284.734 135.568L279.699 138.175C279.454 138.301 279.176 138.308 278.927 138.192C278.678 138.077 278.478 137.849 278.371 137.558L272.401 121.363C272.313 121.125 272.309 120.856 272.389 120.614C272.468 120.373 272.626 120.179 272.827 120.075Z" fill="#2F2E41"/>
<path opacity="0.1" d="M272.827 120.075L278.197 117.295C278.296 117.243 278.403 117.216 278.512 117.213C278.62 117.211 278.728 117.234 278.829 117.281C278.93 117.327 279.022 117.397 279.1 117.486C279.178 117.575 279.24 117.682 279.284 117.8L285.254 133.995C285.361 134.285 285.367 134.614 285.269 134.909C285.172 135.204 284.979 135.441 284.734 135.568L279.699 138.175C279.454 138.301 279.176 138.308 278.927 138.192C278.678 138.077 278.478 137.849 278.371 137.558L272.401 121.363C272.313 121.125 272.309 120.856 272.389 120.614C272.468 120.373 272.626 120.179 272.827 120.075Z" fill="black"/>
<path d="M273.131 120.902L277.814 118.478C278.014 118.374 278.241 118.369 278.445 118.463C278.649 118.558 278.813 118.745 278.9 118.983L284.566 134.351C284.673 134.642 284.678 134.971 284.581 135.266C284.483 135.56 284.291 135.797 284.046 135.924L279.699 138.175C279.454 138.301 279.176 138.308 278.927 138.192C278.678 138.077 278.478 137.849 278.371 137.558L272.705 122.189C272.618 121.952 272.613 121.682 272.693 121.441C272.773 121.199 272.931 121.005 273.131 120.902Z" fill="#2F2E41"/>
<path d="M277.437 127.457C278.198 127.064 278.541 126.005 278.205 125.091C277.868 124.178 276.979 123.757 276.218 124.151C275.458 124.544 275.115 125.604 275.451 126.517C275.788 127.43 276.677 127.851 277.437 127.457Z" fill="#F2F2F2"/>
<path opacity="0.1" d="M328.81 96.7787L330.843 93.2583C330.843 93.2583 338.348 106.969 337.723 116.234C337.098 125.498 336.472 125.868 336.472 127.351C336.472 128.833 334.909 128.833 336.472 130.686C338.036 132.539 340.225 135.132 338.974 136.615C337.723 138.097 336.785 138.097 337.098 139.95C337.298 141.296 337.402 142.659 337.41 144.026C337.41 144.026 334.752 150.14 333.814 150.14C332.876 150.14 323.963 159.961 323.963 158.849C323.963 157.737 324.901 149.955 324.901 148.843C324.901 147.732 325.214 144.026 325.84 142.914C326.465 141.803 326.465 142.173 325.84 141.062C325.214 139.95 325.214 141.062 325.214 139.95C325.214 138.838 325.527 137.356 324.589 136.985C323.651 136.615 322.712 136.985 323.338 135.132C323.963 133.28 323.338 131.797 323.025 131.797C322.712 131.797 321.149 131.427 322.087 130.315C323.025 129.203 320.211 107.71 320.211 107.71C320.211 107.71 320.68 102.337 328.81 96.7787Z" fill="black"/>
<path d="M327.09 88.8115L332.407 91.7761C332.407 91.7761 339.912 105.487 339.287 114.751C338.661 124.015 338.036 124.386 338.036 125.868C338.036 127.351 336.472 127.351 338.036 129.203C339.599 131.056 341.788 133.65 340.538 135.133C339.287 136.615 338.349 136.615 338.661 138.468C338.861 139.814 338.966 141.177 338.974 142.544C338.974 142.544 336.159 160.331 335.221 160.331C334.283 160.331 325.527 158.478 325.527 157.367C325.527 156.255 326.465 148.473 326.465 147.361C326.465 146.25 326.778 142.544 327.403 141.432C328.029 140.32 328.029 140.691 327.403 139.579C326.778 138.468 326.778 139.579 326.778 138.468C326.778 137.356 327.091 135.874 326.152 135.503C325.214 135.133 324.276 135.503 324.901 133.65C325.527 131.797 324.901 130.315 324.589 130.315C324.276 130.315 322.712 129.945 323.651 128.833C324.589 127.721 321.774 106.228 321.774 106.228C321.774 106.228 318.96 94.37 327.09 88.8115Z" fill="#575A89"/>
<path d="M279.638 140.373C279.347 140.464 279.038 140.434 278.763 140.287C278.489 140.141 278.265 139.886 278.13 139.567C276.693 136.162 272.8 126.176 276.429 125.868C279.778 125.585 282.761 133.322 283.978 136.977C284.056 137.209 284.091 137.458 284.081 137.707C284.071 137.957 284.017 138.201 283.922 138.424C283.827 138.646 283.693 138.843 283.529 138.999C283.365 139.156 283.175 139.27 282.971 139.334L279.638 140.373Z" fill="#FFB9B9"/>
<path d="M297.694 78.8062C304.085 78.8062 309.265 72.6676 309.265 65.0952C309.265 57.5228 304.085 51.3842 297.694 51.3842C291.304 51.3842 286.124 57.5228 286.124 65.0952C286.124 72.6676 291.304 78.8062 297.694 78.8062Z" fill="#FFB9B9"/>
<path d="M293.443 57.1986C291.999 57.7889 290.509 58.2058 288.995 58.4429C287.855 58.6536 286.522 58.7615 285.721 57.7781C284.935 56.8129 285.062 55.203 285.598 54.0218C286.134 52.8405 286.993 51.9145 287.637 50.8117C288.65 49.0773 289.248 46.778 290.869 45.9043C291.54 45.5997 292.253 45.442 292.972 45.4388C297.176 45.1212 301.553 44.835 305.446 46.7415C306.909 47.402 308.205 48.4948 309.212 49.9161C309.871 50.9627 310.379 52.1311 310.717 53.3742C311.757 57.0321 311.989 60.9451 311.389 64.7392C310.789 68.5333 309.378 72.0816 307.29 75.045C305.871 73.5301 306.488 70.0294 304.693 69.2574C304.104 69.0041 303.438 69.1804 302.834 68.9799C300.938 68.3498 301.033 64.8771 299.455 63.4818C299.11 63.262 298.805 62.9647 298.556 62.6065C298.417 62.2629 298.357 61.8822 298.381 61.5024C298.369 60.2015 298.885 56.8969 297.838 56.0052C296.772 55.0976 294.467 56.7603 293.443 57.1986Z" fill="#2F2E41"/>
<path d="M181.272 25.3561H276.656V84.6635H269.765V106.581L251.269 84.6635H181.272V25.3561Z" fill="#F84D48"/>
<path d="M228.964 67.7043L227.281 65.9052C221.304 59.4027 217.359 55.1823 217.359 49.925C217.344 48.9247 217.498 47.9311 217.813 47.0029C218.129 46.0747 218.598 45.2309 219.193 44.5213C219.788 43.8118 220.497 43.2509 221.279 42.872C222.06 42.4931 222.897 42.3037 223.742 42.3152C224.738 42.3215 225.721 42.5846 226.623 43.0864C227.525 43.5882 228.324 44.3165 228.964 45.2209C229.605 44.3165 230.404 43.5881 231.305 43.0864C232.207 42.5846 233.19 42.3215 234.187 42.3152C235.031 42.3037 235.869 42.4931 236.65 42.872C237.431 43.2509 238.141 43.8118 238.736 44.5213C239.331 45.2309 239.8 46.0747 240.115 47.0029C240.43 47.9311 240.585 48.9247 240.57 49.925C240.57 55.1824 236.624 59.4028 230.647 65.9052L228.964 67.7043Z" fill="white"/>
<path d="M0 170.841L91.7553 139.96L105.429 197.012L98.8007 199.243L103.854 220.327L81.0078 205.231L13.674 227.892L0 170.841Z" fill="#F84D48"/>
<path d="M55.6416 196.138L53.6078 194.952C46.3591 190.632 41.5904 187.85 40.3782 182.792C40.1334 181.835 40.0531 180.829 40.1422 179.834C40.2312 178.839 40.4878 177.876 40.8968 177C41.3057 176.125 41.8587 175.356 42.5229 174.738C43.1872 174.121 43.9492 173.668 44.764 173.405C45.7238 173.089 46.7303 173.024 47.7135 173.214C48.6967 173.405 49.6332 173.847 50.4578 174.51C50.8653 173.432 51.4659 172.473 52.2178 171.698C52.9696 170.924 53.8548 170.352 54.8117 170.024C55.6212 169.739 56.4705 169.65 57.3095 169.762C58.1485 169.874 58.9601 170.183 59.6963 170.673C60.4324 171.163 61.0781 171.823 61.5952 172.614C62.1122 173.405 62.4901 174.311 62.7065 175.278C63.9187 180.335 61.096 185.672 56.8458 193.862L55.6416 196.138Z" fill="white"/>
<path d="M105.335 136.284C105.335 136.284 102.233 147.309 103.956 149.759C105.679 152.209 93.6183 142.409 93.6183 142.409L100.166 133.426L105.335 136.284Z" fill="#A0616A"/>
<path d="M98.2621 136.266C106.807 136.266 113.734 128.058 113.734 117.932C113.734 107.807 106.807 99.5981 98.2621 99.5981C89.7171 99.5981 82.79 107.807 82.79 117.932C82.79 128.058 89.7171 136.266 98.2621 136.266Z" fill="#2F2E41"/>
<path d="M158.404 260.421L150.478 267.771L145.998 259.196L153.924 252.663L158.404 260.421Z" fill="#A0616A"/>
<path d="M147.204 315.752L149.272 327.594L155.13 336.986C155.13 336.986 170.982 342.703 160.299 345.561C149.616 348.42 147.204 343.52 147.204 343.52L139.623 335.761V346.378H134.798L133.765 331.269C133.765 331.269 133.075 326.777 136.177 321.877L136.866 314.527L147.204 315.752Z" fill="#2F2E41"/>
<path d="M107.23 169.156L109.987 187.94C109.987 187.94 139.278 184.265 141.346 191.207C143.414 198.148 144.103 200.19 144.103 200.19L138.244 202.64L135.488 196.515C134.648 196.163 133.756 196.017 132.868 196.087C131.979 196.158 131.111 196.442 130.319 196.923C127.562 198.557 103.44 202.64 101.717 197.332C99.9935 192.023 95.1691 172.423 95.1691 172.423L102.406 165.481L107.23 169.156Z" fill="#A0616A"/>
<path opacity="0.1" d="M107.23 169.156L109.987 187.94C109.987 187.94 139.278 184.265 141.346 191.207C143.414 198.148 144.103 200.19 144.103 200.19L138.244 202.64L135.488 196.515C134.648 196.163 133.756 196.017 132.868 196.087C131.979 196.158 131.111 196.442 130.319 196.923C127.562 198.557 103.44 202.64 101.717 197.332C99.9935 192.023 95.1691 172.423 95.1691 172.423L102.406 165.481L107.23 169.156Z" fill="black"/>
<path d="M123.427 223.466L125.839 233.266L132.042 270.834C132.042 270.834 132.731 298.602 133.765 301.868C134.798 305.135 134.798 305.543 133.765 306.769C132.731 307.994 130.663 312.077 133.765 314.527C136.866 316.977 147.893 319.836 148.238 316.977C148.583 314.119 148.583 309.627 148.238 307.585C147.893 305.543 149.272 273.692 149.272 273.692L145.137 225.099L131.008 217.341L123.427 223.466Z" fill="#2F2E41"/>
<path opacity="0.1" d="M123.427 223.466L125.839 233.266L132.042 270.834C132.042 270.834 132.731 298.602 133.765 301.868C134.798 305.135 134.798 305.543 133.765 306.769C132.731 307.994 130.663 312.077 133.765 314.527C136.866 316.977 147.893 319.836 148.238 316.977C148.583 314.119 148.583 309.627 148.238 307.585C147.893 305.543 149.272 273.692 149.272 273.692L145.137 225.099L131.008 217.341L123.427 223.466Z" fill="black"/>
<path d="M138.244 185.081L145.826 202.232C145.826 202.232 189.246 225.099 185.455 234.491C181.664 243.883 160.644 261.442 160.644 261.442C160.644 261.442 159.61 268.384 156.508 266.342C153.407 264.3 145.826 253.683 146.515 252.458C147.204 251.233 149.616 248.375 150.65 248.783C151.684 249.192 163.745 238.166 163.745 238.166L143.069 232.041C143.069 232.041 118.257 231.224 116.879 217.341C115.501 203.457 116.879 201.007 116.879 201.007L115.156 196.515L129.285 186.306L138.244 185.081Z" fill="#2F2E41"/>
<path d="M148.927 252.867L141.69 260.625C141.69 260.625 135.488 257.359 131.697 258.584C127.906 259.809 121.359 260.625 121.359 260.625L122.393 267.567L131.185 265.645L124.116 277.368C124.116 277.368 124.116 295.743 128.596 295.743C133.075 295.743 131.697 284.718 131.697 284.718L145.481 272.059C145.481 272.059 152.373 268.792 153.062 268.792C153.752 268.792 148.927 252.867 148.927 252.867Z" fill="#2F2E41"/>
<path d="M103.956 139.551C110.427 139.551 115.673 133.335 115.673 125.667C115.673 117.999 110.427 111.783 103.956 111.783C97.4855 111.783 92.2399 117.999 92.2399 125.667C92.2399 133.335 97.4855 139.551 103.956 139.551Z" fill="#A0616A"/>
<path d="M92.4123 136.488C92.4123 136.488 97.9259 134.855 99.6489 136.488C101.372 138.122 101.717 141.797 104.129 142.205C106.541 142.613 108.609 142.613 108.953 143.022C109.298 143.43 117.224 154.864 117.224 154.864C117.224 154.864 122.048 158.131 123.082 162.622C124.116 167.114 134.454 182.223 135.832 183.856C137.211 185.49 126.873 193.657 123.427 196.515C119.981 199.373 109.987 200.599 106.886 194.065C103.784 187.531 86.8986 145.063 92.4123 136.488Z" fill="#575A89"/>
<path d="M105.507 163.031L108.264 181.815C108.264 181.815 137.555 178.14 139.623 185.081C141.691 192.023 142.38 194.065 142.38 194.065L136.521 196.515L133.765 190.39C132.925 190.038 132.033 189.892 131.145 189.962C130.256 190.032 129.388 190.317 128.596 190.798C125.839 192.432 101.717 196.515 99.9935 191.207C98.2705 185.898 93.446 166.297 93.446 166.297L100.683 159.356L105.507 163.031Z" fill="#A0616A"/>
<path d="M98.9218 138.206C98.9218 138.206 107.23 158.947 106.541 164.664C105.852 170.381 103.44 166.297 103.44 166.297C103.44 166.297 100.338 160.581 98.9597 163.847C97.5813 167.114 95.8582 171.606 94.4798 171.198C93.1014 170.789 85.5201 140.572 89.6554 137.713C93.7906 134.855 98.9218 138.206 98.9218 138.206Z" fill="#575A89"/>
<path d="M81.5007 112.126C90.0457 112.126 96.9728 103.918 96.9728 93.7924C96.9728 83.6668 90.0457 75.4584 81.5007 75.4584C72.9558 75.4584 66.0287 83.6668 66.0287 93.7924C66.0287 103.918 72.9558 112.126 81.5007 112.126Z" fill="#2F2E41"/>
<path d="M68.1552 108.974C70.1578 110.689 72.4779 111.811 74.9213 112.246C77.3648 112.681 79.8606 112.416 82.1999 111.473C84.5393 110.53 86.6541 108.938 88.3675 106.828C90.0808 104.719 91.3429 102.153 92.0482 99.3472C91.7813 101.862 91.0774 104.284 89.9808 106.46C88.8842 108.636 87.4187 110.519 85.677 111.99C83.9353 113.461 81.9551 114.488 79.8614 115.007C77.7677 115.525 75.6061 115.524 73.513 115.002C71.4198 114.481 69.4406 113.451 67.7004 111.977C65.9601 110.504 64.4966 108.619 63.4022 106.441C62.3078 104.264 61.6062 101.841 61.3419 99.3256C61.0775 96.8105 61.2561 94.2578 61.8664 91.8286C61.5198 95.0922 61.9208 98.4062 63.0273 101.423C64.1338 104.44 65.9051 107.048 68.1552 108.974Z" fill="#2F2E41"/>
<path d="M94.1362 134.433C100.403 134.433 105.482 128.413 105.482 120.988C105.482 113.562 100.403 107.543 94.1362 107.543C87.8699 107.543 82.79 113.562 82.79 120.988C82.79 128.413 87.8699 134.433 94.1362 134.433Z" fill="#2F2E41"/>
<path d="M103.677 125.266C109.232 125.266 113.734 121.093 113.734 115.946C113.734 110.799 109.232 106.626 103.677 106.626C98.1231 106.626 93.6205 110.799 93.6205 115.946C93.6205 121.093 98.1231 125.266 103.677 125.266Z" fill="#2F2E41"/>
<path d="M104.129 131.792C105.366 131.792 106.369 129.69 106.369 127.096C106.369 124.503 105.366 122.4 104.129 122.4C102.892 122.4 101.889 124.503 101.889 127.096C101.889 129.69 102.892 131.792 104.129 131.792Z" fill="#A0616A"/>
<path d="M134.876 196.337C134.876 196.337 140.976 192.189 142.109 193.229C143.241 194.269 143.744 197.523 143.744 197.523L136.694 200.803L134.626 196.311L134.876 196.337Z" fill="#2F2E41"/>
<path d="M105.805 337.864V287.971" stroke="#3F3D56" stroke-width="2" stroke-miterlimit="10"/>
<path d="M105.805 295.026C109.093 295.026 111.759 291.867 111.759 287.971C111.759 284.074 109.093 280.915 105.805 280.915C102.517 280.915 99.8508 284.074 99.8508 287.971C99.8508 291.867 102.517 295.026 105.805 295.026Z" fill="#3F3D56"/>
<path d="M105.805 318.721C105.805 318.721 104.954 297.042 87.5172 299.562L105.805 318.721Z" fill="#3F3D56"/>
<path d="M287.144 300.904V251.011" stroke="#3F3D56" stroke-width="2" stroke-miterlimit="10"/>
<path d="M287.144 258.066C290.432 258.066 293.098 254.908 293.098 251.011C293.098 247.114 290.432 243.955 287.144 243.955C283.856 243.955 281.19 247.114 281.19 251.011C281.19 254.908 283.856 258.066 287.144 258.066Z" fill="#3F3D56"/>
<path d="M287.144 281.761C287.144 281.761 286.293 260.082 268.856 262.602L287.144 281.761Z" fill="#3F3D56"/>
<path d="M360.668 302.045V202.259" stroke="#3F3D56" stroke-width="2" stroke-miterlimit="10"/>
<path d="M360.668 209.315C363.957 209.315 366.623 206.156 366.623 202.259C366.623 198.362 363.957 195.203 360.668 195.203C357.38 195.203 354.714 198.362 354.714 202.259C354.714 206.156 357.38 209.315 360.668 209.315Z" fill="#3F3D56"/>
<path d="M360.668 230.993C360.668 230.993 361.519 209.315 378.956 211.834L360.668 230.993Z" fill="#3F3D56"/>
<path d="M360.668 300.105C360.668 300.105 356.841 260.215 378.956 258.199" stroke="#3F3D56" stroke-width="2" stroke-miterlimit="10"/>
<path d="M378.956 265.255C382.245 265.255 384.91 262.096 384.91 258.199C384.91 254.303 382.245 251.144 378.956 251.144C375.668 251.144 373.002 254.303 373.002 258.199C373.002 262.096 375.668 265.255 378.956 265.255Z" fill="#3F3D56"/>
</g>
<defs>
<clipPath id="clip0_107_527">
<rect width="384.91" height="350" fill="white"/>
</clipPath>
</defs>
</svg>
