<svg width="34" height="34" viewBox="0 0 34 34" fill="none" xmlns="http://www.w3.org/2000/svg">
<path d="M25.3335 0.333344H8.66683C4.06683 0.333344 0.333496 4.05001 0.333496 8.63334V20.2667C0.333496 24.85 4.06683 28.5667 8.66683 28.5667H11.1668C11.6168 28.5667 12.2168 28.8667 12.5002 29.2333L15.0002 32.55C16.1002 34.0167 17.9002 34.0167 19.0002 32.55L21.5002 29.2333C21.8168 28.8167 22.3168 28.5667 22.8335 28.5667H25.3335C29.9335 28.5667 33.6668 24.85 33.6668 20.2667V8.63334C33.6668 4.05001 29.9335 0.333344 25.3335 0.333344ZM10.3335 17C9.40016 17 8.66683 16.25 8.66683 15.3333C8.66683 14.4167 9.41683 13.6667 10.3335 13.6667C11.2502 13.6667 12.0002 14.4167 12.0002 15.3333C12.0002 16.25 11.2668 17 10.3335 17ZM17.0002 17C16.0668 17 15.3335 16.25 15.3335 15.3333C15.3335 14.4167 16.0835 13.6667 17.0002 13.6667C17.9168 13.6667 18.6668 14.4167 18.6668 15.3333C18.6668 16.25 17.9335 17 17.0002 17ZM23.6668 17C22.7335 17 22.0002 16.25 22.0002 15.3333C22.0002 14.4167 22.7502 13.6667 23.6668 13.6667C24.5835 13.6667 25.3335 14.4167 25.3335 15.3333C25.3335 16.25 24.6002 17 23.6668 17Z" fill="#A3A3A3"/>
</svg>
