<svg width="18" height="24" viewBox="0 0 18 24" fill="none" xmlns="http://www.w3.org/2000/svg">
<path d="M17.5631 14.905L16.3964 12.9683C16.1514 12.5367 15.9298 11.72 15.9298 11.2417V8.29001C15.9284 6.98805 15.5584 5.7131 14.8626 4.61265C14.1668 3.5122 13.1737 2.63124 11.9981 2.07168C11.6981 1.53891 11.2604 1.09651 10.7309 0.790722C10.2014 0.484929 9.59952 0.326968 8.9881 0.333346C7.71644 0.333346 6.5731 1.02168 5.96644 2.10668C3.69144 3.23835 2.11644 5.58335 2.11644 8.29001V11.2417C2.11644 11.72 1.89477 12.5367 1.64977 12.9567L0.471437 14.905C0.00477068 15.6867 -0.10023 16.55 0.191437 17.3433C0.471437 18.125 1.13644 18.7317 1.99977 19.0233C4.2631 19.7933 6.64311 20.1667 9.0231 20.1667C11.4031 20.1667 13.7831 19.7933 16.0464 19.035C16.8631 18.7667 17.4931 18.1483 17.7964 17.3433C18.0998 16.5383 18.0181 15.6517 17.5631 14.905ZM12.3014 21.345C12.0561 22.0242 11.6076 22.6114 11.0169 23.0267C10.4262 23.4421 9.7219 23.6656 8.99977 23.6667C8.0781 23.6667 7.1681 23.2933 6.52644 22.6283C6.1531 22.2783 5.8731 21.8117 5.70977 21.3333C5.86144 21.3567 6.0131 21.3683 6.17644 21.3917C6.44477 21.4267 6.72477 21.4617 7.00477 21.485C7.66977 21.5433 8.34644 21.5783 9.0231 21.5783C9.6881 21.5783 10.3531 21.5433 11.0064 21.485C11.2514 21.4617 11.4964 21.45 11.7298 21.415L12.3014 21.345Z" fill="black"/>
</svg>
