<svg width="40" height="40" viewBox="0 0 40 40" fill="none" xmlns="http://www.w3.org/2000/svg">
<path d="M19.9999 3.33334C15.6333 3.33334 12.0833 6.88334 12.0833 11.25C12.0833 15.5333 15.4333 19 19.7999 19.15C19.9333 19.1333 20.0666 19.1333 20.1666 19.15H20.2833C22.3322 19.0816 24.2742 18.2191 25.6987 16.7449C27.1233 15.2706 27.9186 13.3001 27.9166 11.25C27.9166 6.88334 24.3666 3.33334 19.9999 3.33334ZM28.4666 23.5817C23.8166 20.4817 16.2333 20.4817 11.5499 23.5817C9.43327 24.9983 8.2666 26.915 8.2666 28.965C8.2666 31.015 9.43327 32.915 11.5333 34.315C13.8666 35.8817 16.9333 36.665 19.9999 36.665C23.0666 36.665 26.1333 35.8817 28.4666 34.315C30.5666 32.8983 31.7333 30.9983 31.7333 28.9317C31.7166 26.8817 30.5666 24.9817 28.4666 23.5817Z" fill="#ADADAD"/>
</svg>
