<svg width="418" height="350" viewBox="0 0 418 350" fill="none" xmlns="http://www.w3.org/2000/svg">
<g clip-path="url(#clip0_14_237)">
<path d="M271.658 346.086L193.483 205.141C193.461 204.796 193.354 204.461 193.172 204.168C192.99 203.874 192.738 203.629 192.439 203.456C192.097 203.26 191.705 203.165 191.31 203.183C191.297 203.182 191.285 203.183 191.272 203.182C191.259 203.183 191.246 203.182 191.234 203.183C190.699 203.158 190.175 203.341 189.772 203.693C189.369 204.045 189.118 204.54 189.071 205.073L106.217 346.086C106.079 346.325 105.989 346.589 105.953 346.863C105.917 347.137 105.935 347.415 106.006 347.681C106.077 347.948 106.201 348.198 106.369 348.417C106.537 348.636 106.746 348.82 106.985 348.958C107.224 349.096 107.488 349.185 107.762 349.221C108.036 349.257 108.314 349.239 108.58 349.168C108.847 349.096 109.097 348.973 109.316 348.805C109.535 348.636 109.718 348.427 109.856 348.188L191.216 209.717L268.018 348.188C268.156 348.427 268.34 348.636 268.559 348.805C268.778 348.973 269.027 349.096 269.294 349.168C269.561 349.239 269.839 349.257 270.112 349.221C270.386 349.185 270.65 349.096 270.889 348.958C271.128 348.82 271.338 348.636 271.506 348.417C271.674 348.198 271.797 347.948 271.868 347.681C271.94 347.415 271.958 347.137 271.922 346.863C271.885 346.589 271.796 346.325 271.658 346.086Z" fill="#3F3D56"/>
<path d="M178.318 321.904L187.154 319.876L183.54 284.83L170.499 287.822L178.318 321.904Z" fill="#FFB6B6"/>
<path d="M185.15 304.973L172.575 307.858L168.554 300L168.327 299.722C166.543 297.533 165.553 294.804 165.518 291.98L155.066 264.333L154.211 263.927C153.55 263.612 152.964 263.16 152.491 262.601C152.019 262.042 151.671 261.389 151.471 260.684C151.271 259.98 151.224 259.241 151.332 258.517C151.44 257.793 151.702 257.1 152.099 256.486L150.993 253.559L119.771 253.616L119.74 253.607L81.3998 242.853L85.4256 218.855L96.2105 225.639C99.7643 225.408 160.642 221.671 166.266 235.314C171.274 247.463 178.491 268.219 183.663 283.492C183.921 284.177 184.241 284.838 184.621 285.465C185.425 286.704 185.898 288.13 185.992 289.604C186.053 290.246 186.175 290.88 186.357 291.498C188.507 297.925 185.232 304.804 185.199 304.873L185.15 304.973Z" fill="#2F2E41"/>
<path d="M175.333 318.974L178.206 318.314L188.376 311.18L195.434 314.362L195.435 314.362C198.832 313.582 202.4 314.185 205.353 316.036C208.306 317.887 210.403 320.835 211.183 324.233L211.278 324.649L178.368 332.2L175.333 318.974Z" fill="#2F2E41"/>
<path d="M44.8678 319.761C45.7662 309.982 51.4941 300.192 60.681 296.724C57.3398 306.866 57.6938 317.864 61.6805 327.77C63.2318 331.585 65.3545 335.667 64.1369 339.601C63.3793 342.049 61.3953 343.967 59.1482 345.199C56.901 346.431 54.3835 347.064 51.8974 347.686L51.4178 348.109C47.1553 339.263 43.9694 329.539 44.8678 319.761Z" fill="#F0F0F0"/>
<path d="M60.7791 296.905C55.5645 303.14 52.4469 310.859 51.8692 318.966C51.7139 320.71 51.8343 322.466 52.226 324.172C52.6612 325.821 53.5301 327.324 54.7425 328.524C55.8504 329.665 57.1158 330.704 57.927 332.095C58.3316 332.813 58.5799 333.609 58.6556 334.429C58.7312 335.25 58.6325 336.078 58.3658 336.858C57.7521 338.818 56.4704 340.442 55.1619 341.985C53.7091 343.7 52.1728 345.457 51.6034 347.686C51.5345 347.956 51.1194 347.833 51.1883 347.563C52.179 343.686 55.8385 341.383 57.5061 337.866C58.2842 336.224 58.5723 334.338 57.7395 332.659C57.0112 331.19 55.7072 330.117 54.5754 328.971C53.3756 327.818 52.4763 326.389 51.9562 324.808C51.479 323.128 51.2911 321.379 51.4007 319.636C51.5848 315.707 52.3855 311.832 53.7733 308.152C55.334 303.944 57.6031 300.033 60.4824 296.59C60.6607 296.377 60.9562 296.693 60.7791 296.905Z" fill="white"/>
<path d="M51.9016 316.345C50.5545 316.063 49.3513 315.312 48.507 314.225C47.6627 313.139 47.2322 311.787 47.2924 310.412C47.2953 310.356 47.3199 310.303 47.361 310.265C47.4021 310.227 47.4564 310.206 47.5125 310.207C47.5686 310.208 47.6221 310.231 47.6618 310.271C47.7015 310.31 47.7242 310.364 47.7252 310.42C47.6668 311.7 48.068 312.959 48.8563 313.969C49.6446 314.98 50.7681 315.675 52.024 315.93C52.2969 315.986 52.1729 316.4 51.9016 316.345Z" fill="white"/>
<path d="M54.1045 328.019C56.4724 326.5 58.1807 324.144 58.8889 321.421C58.9588 321.152 59.3738 321.274 59.304 321.544C58.5618 324.376 56.779 326.824 54.3115 328.399C54.0762 328.549 53.8705 328.168 54.1045 328.019Z" fill="white"/>
<path d="M55.7485 304.341C56.247 304.558 56.7918 304.648 57.3338 304.603C57.8759 304.558 58.3983 304.38 58.8541 304.083C59.0874 303.93 59.2928 304.311 59.0611 304.463C58.5559 304.788 57.9788 304.985 57.38 305.036C56.7812 305.087 56.179 304.991 55.6261 304.756C55.5721 304.738 55.527 304.7 55.4998 304.65C55.4726 304.6 55.4654 304.542 55.4798 304.487C55.4962 304.432 55.5337 304.386 55.5841 304.358C55.6344 304.331 55.6935 304.325 55.7485 304.341Z" fill="white"/>
<path d="M89.5531 313.211C89.4101 313.31 89.2672 313.41 89.1242 313.513C87.2093 314.862 85.4071 316.365 83.7356 318.006C83.6043 318.131 83.4732 318.259 83.3458 318.388C79.3608 322.384 76.1524 327.086 73.8837 332.254C72.9828 334.311 72.2398 336.434 71.661 338.604C70.8618 341.6 70.2337 344.913 68.541 347.398C68.3673 347.659 68.1776 347.909 67.973 348.147L51.9715 348.661C51.9345 348.644 51.8975 348.631 51.8604 348.614L51.2224 348.663C51.2444 348.549 51.2697 348.432 51.2918 348.318C51.3043 348.251 51.3204 348.185 51.3329 348.119C51.3423 348.075 51.352 348.031 51.358 347.99C51.3611 347.975 51.3644 347.961 51.3676 347.95C51.3736 347.909 51.3835 347.872 51.3896 347.836C51.5292 347.177 51.6737 346.518 51.8231 345.859C51.823 345.856 51.823 345.856 51.8264 345.852C52.9166 340.82 54.5998 335.935 56.8409 331.299C56.9096 331.162 56.9781 331.021 57.0541 330.883C58.0948 328.829 59.3017 326.864 60.6625 325.007C61.411 323.993 62.2103 323.017 63.0574 322.084C65.2509 319.676 67.8095 317.628 70.6393 316.015C76.2811 312.8 82.8882 311.426 89.0812 313.08C89.2396 313.122 89.3946 313.165 89.5531 313.211Z" fill="#F0F0F0"/>
<path d="M89.5236 313.415C81.6063 315.253 74.4696 319.54 69.1271 325.665C67.9536 326.964 66.992 328.439 66.2779 330.036C65.6325 331.615 65.4216 333.338 65.6672 335.026C65.8646 336.604 66.2493 338.196 66.0596 339.795C65.9504 340.612 65.6697 341.397 65.2359 342.097C64.8021 342.798 64.225 343.4 63.5426 343.862C61.8721 345.058 59.8714 345.582 57.8972 346.027C55.7051 346.521 53.4204 346.999 51.6238 348.436C51.4062 348.61 51.1488 348.262 51.3661 348.088C54.4918 345.589 58.7999 345.954 62.2492 344.149C63.8587 343.307 65.2242 341.975 65.5704 340.132C65.8732 338.521 65.4779 336.879 65.2642 335.283C65.0005 333.64 65.143 331.957 65.6795 330.382C66.31 328.753 67.2131 327.243 68.3502 325.918C70.8624 322.892 73.8348 320.28 77.1584 318.177C80.9383 315.757 85.1045 314 89.4766 312.985C89.7472 312.922 89.7925 313.353 89.5236 313.415Z" fill="white"/>
<path d="M70.7312 323.592C69.8252 322.556 69.3169 321.232 69.2971 319.856C69.2772 318.48 69.7472 317.141 70.623 316.08C70.8009 315.865 71.1421 316.132 70.9639 316.346C70.1466 317.333 69.7089 318.58 69.73 319.861C69.7511 321.143 70.2295 322.374 71.0789 323.334C71.2633 323.543 70.9145 323.799 70.7312 323.592Z" fill="white"/>
<path d="M65.4618 334.239C68.2669 334.452 71.0492 333.599 73.2539 331.852C73.4722 331.678 73.7297 332.026 73.5116 332.199C71.214 334.014 68.3168 334.895 65.3982 334.667C65.12 334.645 65.1851 334.217 65.4618 334.239Z" fill="white"/>
<path d="M81.0303 316.323C81.2973 316.797 81.6779 317.197 82.1378 317.487C82.5977 317.778 83.1225 317.949 83.6651 317.987C83.9435 318.005 83.878 318.433 83.6015 318.415C83.0022 318.371 82.4228 318.181 81.914 317.861C81.4052 317.541 80.9824 317.102 80.6826 316.581C80.6502 316.534 80.6368 316.477 80.6452 316.42C80.6535 316.364 80.683 316.313 80.7276 316.278C80.7738 316.244 80.8315 316.23 80.8882 316.238C80.9448 316.247 80.9959 316.277 81.0303 316.323Z" fill="white"/>
<path d="M306.669 319.761C305.77 309.982 300.042 300.192 290.855 296.724C294.197 306.866 293.843 317.864 289.856 327.77C288.305 331.585 286.182 335.667 287.4 339.601C288.157 342.049 290.141 343.967 292.388 345.199C294.635 346.431 297.153 347.064 299.639 347.686L300.119 348.109C304.381 339.263 307.567 329.539 306.669 319.761Z" fill="#F0F0F0"/>
<path d="M290.757 296.905C295.972 303.14 299.089 310.859 299.667 318.966C299.823 320.71 299.702 322.466 299.31 324.172C298.875 325.821 298.006 327.324 296.794 328.524C295.686 329.665 294.421 330.704 293.609 332.095C293.205 332.813 292.956 333.609 292.881 334.429C292.805 335.25 292.904 336.078 293.171 336.858C293.784 338.818 295.066 340.442 296.374 341.985C297.827 343.7 299.364 345.457 299.933 347.686C300.002 347.956 300.417 347.833 300.348 347.563C299.357 343.686 295.698 341.383 294.03 337.866C293.252 336.224 292.964 334.338 293.797 332.659C294.525 331.19 295.829 330.117 296.961 328.971C298.161 327.818 299.06 326.389 299.58 324.808C300.057 323.128 300.245 321.379 300.136 319.636C299.952 315.707 299.151 311.832 297.763 308.152C296.202 303.944 293.933 300.033 291.054 296.59C290.876 296.377 290.58 296.693 290.757 296.905Z" fill="white"/>
<path d="M299.635 316.345C300.982 316.063 302.185 315.312 303.029 314.225C303.874 313.139 304.304 311.787 304.244 310.412C304.241 310.356 304.217 310.303 304.176 310.265C304.134 310.227 304.08 310.206 304.024 310.207C303.968 310.208 303.914 310.231 303.875 310.271C303.835 310.31 303.812 310.364 303.811 310.42C303.87 311.7 303.469 312.959 302.68 313.969C301.892 314.98 300.768 315.675 299.512 315.93C299.24 315.986 299.364 316.4 299.635 316.345Z" fill="white"/>
<path d="M297.432 328.019C295.064 326.5 293.356 324.144 292.648 321.421C292.578 321.152 292.163 321.274 292.232 321.544C292.975 324.376 294.757 326.824 297.225 328.399C297.46 328.549 297.666 328.168 297.432 328.019Z" fill="white"/>
<path d="M295.788 304.341C295.289 304.558 294.745 304.648 294.203 304.603C293.661 304.558 293.138 304.38 292.682 304.083C292.449 303.93 292.244 304.311 292.475 304.463C292.98 304.788 293.558 304.985 294.156 305.036C294.755 305.087 295.357 304.991 295.91 304.756C295.964 304.738 296.009 304.7 296.037 304.65C296.064 304.6 296.071 304.542 296.057 304.487C296.04 304.432 296.003 304.386 295.952 304.358C295.902 304.331 295.843 304.325 295.788 304.341Z" fill="white"/>
<path d="M261.983 313.211C262.126 313.31 262.269 313.41 262.412 313.513C264.327 314.862 266.129 316.365 267.801 318.006C267.932 318.131 268.063 318.259 268.191 318.388C272.176 322.384 275.384 327.086 277.653 332.254C278.554 334.311 279.297 336.434 279.875 338.604C280.675 341.6 281.303 344.913 282.995 347.398C283.169 347.659 283.359 347.909 283.563 348.147L299.565 348.661C299.602 348.644 299.639 348.631 299.676 348.614L300.314 348.663C300.292 348.549 300.267 348.432 300.245 348.318C300.232 348.251 300.216 348.185 300.204 348.119C300.194 348.075 300.184 348.031 300.178 347.99C300.175 347.976 300.172 347.961 300.169 347.95C300.163 347.909 300.153 347.872 300.147 347.836C300.007 347.177 299.863 346.518 299.713 345.859C299.713 345.856 299.713 345.856 299.71 345.852C298.62 340.82 296.937 335.935 294.696 331.299C294.627 331.162 294.558 331.021 294.482 330.883C293.442 328.829 292.235 326.864 290.874 325.007C290.125 323.993 289.326 323.017 288.479 322.084C286.286 319.676 283.727 317.628 280.897 316.015C275.255 312.8 268.648 311.426 262.455 313.08C262.297 313.122 262.142 313.165 261.983 313.211Z" fill="#F0F0F0"/>
<path d="M262.013 313.415C269.93 315.253 277.067 319.54 282.409 325.665C283.583 326.964 284.544 328.439 285.259 330.036C285.904 331.615 286.115 333.338 285.869 335.026C285.672 336.604 285.287 338.196 285.477 339.795C285.586 340.612 285.867 341.397 286.301 342.097C286.734 342.798 287.311 343.4 287.994 343.862C289.664 345.058 291.665 345.582 293.639 346.027C295.831 346.521 298.116 346.999 299.913 348.436C300.13 348.61 300.388 348.262 300.17 348.088C297.045 345.589 292.737 345.954 289.287 344.149C287.678 343.307 286.312 341.975 285.966 340.132C285.663 338.521 286.059 336.879 286.272 335.283C286.536 333.64 286.393 331.957 285.857 330.382C285.226 328.753 284.323 327.243 283.186 325.918C280.674 322.892 277.702 320.28 274.378 318.177C270.598 315.757 266.432 314 262.06 312.985C261.789 312.922 261.744 313.353 262.013 313.415Z" fill="white"/>
<path d="M280.805 323.592C281.711 322.556 282.22 321.232 282.239 319.856C282.259 318.48 281.789 317.141 280.913 316.08C280.736 315.865 280.394 316.132 280.573 316.346C281.39 317.333 281.828 318.58 281.806 319.861C281.785 321.143 281.307 322.374 280.457 323.334C280.273 323.543 280.622 323.799 280.805 323.592Z" fill="white"/>
<path d="M286.075 334.239C283.27 334.452 280.487 333.599 278.283 331.852C278.064 331.678 277.807 332.026 278.025 332.199C280.322 334.014 283.22 334.895 286.138 334.667C286.417 334.645 286.351 334.217 286.075 334.239Z" fill="white"/>
<path d="M270.506 316.323C270.239 316.797 269.859 317.197 269.399 317.487C268.939 317.778 268.414 317.949 267.871 317.987C267.593 318.005 267.658 318.433 267.935 318.415C268.534 318.371 269.114 318.181 269.622 317.861C270.131 317.541 270.554 317.102 270.854 316.581C270.886 316.534 270.9 316.477 270.891 316.42C270.883 316.364 270.853 316.313 270.809 316.278C270.763 316.244 270.705 316.23 270.648 316.238C270.592 316.247 270.541 316.277 270.506 316.323Z" fill="white"/>
<path d="M417.312 349.444C417.312 349.592 417.253 349.733 417.149 349.837C417.045 349.941 416.904 350 416.757 350H0.555881C0.408505 350 0.267163 349.941 0.162953 349.837C0.0587424 349.733 0.000198364 349.592 0.000198364 349.444C0.000198364 349.297 0.0587424 349.156 0.162953 349.051C0.267163 348.947 0.408505 348.889 0.555881 348.889H416.757C416.904 348.889 417.045 348.948 417.149 349.052C417.253 349.156 417.312 349.297 417.312 349.444Z" fill="#3F3D56"/>
<path d="M268.087 134.484C269.247 134.484 270.188 133.544 270.188 132.383C270.188 131.222 269.247 130.282 268.087 130.282C266.926 130.282 265.985 131.222 265.985 132.383C265.985 133.544 266.926 134.484 268.087 134.484Z" fill="#3F3D56"/>
<path d="M241.774 148.569L270.103 130.771C270.359 130.61 270.646 130.502 270.945 130.455C271.244 130.408 271.549 130.422 271.842 130.496C272.136 130.57 272.411 130.702 272.652 130.886C272.893 131.069 273.094 131.3 273.243 131.563C273.392 131.826 273.487 132.117 273.52 132.418C273.554 132.719 273.526 133.023 273.439 133.313C273.352 133.603 273.207 133.872 273.013 134.104C272.818 134.336 272.579 134.526 272.309 134.664L242.485 149.824C242.32 149.908 242.128 149.925 241.95 149.871C241.772 149.818 241.622 149.698 241.53 149.536C241.439 149.374 241.413 149.184 241.458 149.003C241.504 148.823 241.617 148.668 241.774 148.569Z" fill="#E4E4E4"/>
<path d="M184.94 186.892C184.717 186.56 184.601 186.168 184.607 185.768C184.612 185.369 184.74 184.98 184.973 184.655C185.452 184.013 186.09 183.507 186.825 183.186C188.341 182.415 189.973 181.899 191.657 181.659C192.937 181.478 194.334 181.42 195.326 180.592C196.312 179.77 196.862 178.232 198.139 178.104C199.375 177.98 200.324 179.332 201.563 179.415C203.089 179.519 204.089 177.732 205.574 177.366C206.569 177.12 207.591 177.553 208.524 177.976L214.122 180.516L216.991 181.817C217.993 182.272 219.123 182.884 219.312 183.968C219.572 185.458 217.916 186.509 216.499 187.038C206.385 190.771 195.27 190.772 185.155 187.042" fill="#E03765"/>
<path d="M193.373 214.334C233.992 214.334 266.919 209.63 266.919 203.828C266.919 198.025 233.992 193.321 193.373 193.321C152.755 193.321 119.827 198.025 119.827 203.828C119.827 209.63 152.755 214.334 193.373 214.334Z" fill="#3F3D56"/>
<path d="M342.567 268.969H292.135C289.814 268.969 287.933 270.85 287.933 273.171C287.933 275.492 289.814 277.374 292.135 277.374H342.567C344.888 277.374 346.769 275.492 346.769 273.171C346.769 270.85 344.888 268.969 342.567 268.969Z" fill="#3F3D56"/>
<path d="M367.007 194.04L350.351 273.166L354.689 293.419L362.879 331.639V348.819C362.88 348.842 362.879 348.865 362.875 348.889C362.872 349.268 362.802 349.644 362.669 350H356.085C355.952 349.644 355.883 349.268 355.88 348.889C355.876 348.865 355.874 348.842 355.875 348.819V332.377L348.441 297.687L346.937 290.682L344.028 277.108L343.188 273.176V273.171L344.019 269.23L344.659 266.19L360.153 192.602C360.247 192.152 360.429 191.724 360.688 191.344C360.947 190.964 361.279 190.639 361.664 190.387C362.049 190.135 362.48 189.961 362.933 189.876C363.385 189.791 363.849 189.796 364.3 189.89C364.75 189.985 365.177 190.167 365.557 190.427C365.937 190.687 366.262 191.019 366.514 191.404C366.765 191.79 366.938 192.221 367.023 192.673C367.108 193.125 367.102 193.59 367.007 194.04Z" fill="#3F3D56"/>
<path d="M295.637 273.171V348.819C295.638 348.842 295.637 348.865 295.633 348.889C295.63 349.268 295.56 349.644 295.427 350H288.843C288.71 349.644 288.64 349.268 288.638 348.889C288.634 348.865 288.632 348.842 288.633 348.819V273.171C288.633 272.242 289.002 271.352 289.659 270.695C290.316 270.038 291.206 269.669 292.135 269.669C293.064 269.669 293.955 270.038 294.612 270.695C295.268 271.352 295.637 272.242 295.637 273.171Z" fill="#3F3D56"/>
<path d="M300.54 260.563H334.161C337.505 260.563 340.712 261.892 343.077 264.256C345.441 266.62 346.769 269.827 346.769 273.171H287.933C287.933 269.827 289.261 266.62 291.625 264.256C293.99 261.892 297.197 260.563 300.54 260.563Z" fill="#3F3D56"/>
<path d="M350.972 297.687H292.135C291.206 297.687 290.315 297.318 289.659 296.661C289.002 296.004 288.633 295.113 288.633 294.184C288.633 293.256 289.002 292.365 289.659 291.708C290.315 291.051 291.206 290.682 292.135 290.682H350.972C351.901 290.682 352.792 291.051 353.448 291.708C354.105 292.365 354.474 293.256 354.474 294.184C354.474 295.113 354.105 296.004 353.448 296.661C352.792 297.318 351.901 297.687 350.972 297.687Z" fill="#3F3D56"/>
<path d="M77.2914 277.501H136.638C138.959 277.501 140.84 275.62 140.84 273.299V272.025C140.84 269.704 138.959 267.822 136.638 267.822H77.2914C74.9704 267.822 73.0888 269.704 73.0888 272.025V273.299C73.0888 275.62 74.9704 277.501 77.2914 277.501Z" fill="#3F3D56"/>
<path d="M76.6802 272.718L75.6061 277.145L71.6649 293.358L69.9654 300.362L62.0736 332.853V346.951C62.0757 347.641 61.8708 348.316 61.4853 348.889C61.1823 349.352 60.7702 349.733 60.2853 350H56.8577C56.3728 349.733 55.9607 349.352 55.6577 348.889C55.2722 348.316 55.0672 347.641 55.0692 346.951V332.013L63.8388 295.917L69.4984 272.606L50.3063 181.432C50.2114 180.982 50.206 180.518 50.2906 180.066C50.3752 179.614 50.548 179.183 50.7993 178.798C51.0505 178.412 51.3752 178.081 51.7548 177.821C52.1344 177.561 52.5615 177.379 53.0116 177.284C53.4617 177.19 53.926 177.185 54.378 177.27C54.83 177.355 55.2608 177.529 55.6457 177.78C56.0307 178.032 56.3623 178.357 56.6215 178.737C56.8808 179.117 57.0626 179.544 57.1566 179.994L74.8965 264.248L75.7137 268.133L76.6661 272.662L76.6802 272.718Z" fill="#3F3D56"/>
<path d="M139.505 272.662V346.951C139.507 347.641 139.302 348.316 138.916 348.889C138.613 349.352 138.201 349.733 137.716 350H134.284C133.802 349.732 133.391 349.35 133.089 348.889C132.703 348.316 132.498 347.641 132.501 346.951V272.662C132.501 271.733 132.869 270.843 133.526 270.186C134.183 269.529 135.074 269.16 136.003 269.16C136.932 269.16 137.822 269.529 138.479 270.186C139.136 270.843 139.505 271.733 139.505 272.662Z" fill="#3F3D56"/>
<path d="M140.84 272.662H73.0888V270.751C73.0888 269.096 73.4149 267.456 74.0485 265.927C74.6821 264.397 75.6108 263.007 76.7816 261.836C77.9523 260.666 79.3422 259.737 80.8719 259.103C82.4015 258.47 84.041 258.144 85.6967 258.144H128.232C131.576 258.144 134.783 259.472 137.148 261.836C139.512 264.201 140.84 267.408 140.84 270.751L140.84 272.662Z" fill="#3F3D56"/>
<path d="M136.001 300.361H68.2494C67.3205 300.361 66.4298 299.992 65.773 299.335C65.1162 298.678 64.7472 297.787 64.7472 296.859C64.7472 295.93 65.1162 295.039 65.773 294.382C66.4298 293.725 67.3205 293.356 68.2494 293.356H136.001C136.93 293.356 137.821 293.725 138.477 294.382C139.134 295.039 139.503 295.93 139.503 296.859C139.503 297.787 139.134 298.678 138.477 299.335C137.821 299.992 136.93 300.361 136.001 300.361Z" fill="#3F3D56"/>
<path d="M223.073 330.911L215.712 327.391L225.823 296.623L236.687 301.819L223.073 330.911Z" fill="#9E616A"/>
<path d="M272.957 328.124L265.042 330.077L253.574 299.796L265.257 296.914L272.957 328.124Z" fill="#9E616A"/>
<path d="M242.62 197.182C243.67 198.887 245.345 200.114 247.287 200.601C249.23 201.088 251.285 200.797 253.016 199.789C253.364 199.579 253.694 199.34 254.002 199.075L277.274 212.43L276.263 198.72L254.319 188.14C253.125 186.941 251.567 186.171 249.888 185.953C248.21 185.734 246.507 186.079 245.045 186.932C244.204 187.437 243.472 188.106 242.893 188.898C242.314 189.691 241.899 190.591 241.673 191.546C241.447 192.501 241.414 193.492 241.577 194.459C241.74 195.427 242.095 196.353 242.62 197.182Z" fill="#9E616A"/>
<path d="M267.269 207.401L271.382 209.908L289.857 221.174C291.071 221.933 292.422 222.445 293.834 222.682C295.245 222.919 296.69 222.875 298.085 222.553C299.48 222.231 300.797 221.637 301.962 220.806C303.128 219.974 304.118 218.921 304.876 217.707C306.243 215.453 306.727 212.773 306.234 210.183L298.023 169.159C297.719 167.549 297.072 166.023 296.125 164.686C295.177 163.349 293.952 162.232 292.533 161.412C291.115 160.592 289.536 160.087 287.904 159.934C286.273 159.78 284.627 159.98 283.08 160.521C280.48 161.435 278.325 163.305 277.055 165.751C275.785 168.197 275.494 171.035 276.242 173.687L284.828 202.801L271.667 196.665L267.269 207.401Z" fill="#E6E6E6"/>
<path d="M257.542 319.638L244.877 294.236L244.878 294.178L246.129 247.587C246.144 247.172 246.178 246.756 246.228 246.347C246.449 244.478 247.04 242.673 247.966 241.035C248.892 239.398 250.134 237.961 251.621 236.809C253.045 235.694 254.677 234.875 256.421 234.398C258.165 233.921 259.986 233.796 261.779 234.031L297.997 238.717L299.252 233.582L299.486 233.496L334.188 220.778L334.388 221.104C338.933 228.499 342.11 243.271 342.976 247.622L342.988 247.684C343.006 247.776 343.017 247.832 343.021 247.848C344.807 255.273 337.426 267.573 330.073 269.421C314.583 273.369 300.731 270.29 284.691 266.723C278.939 265.444 272.995 264.122 266.447 262.979L266.642 266.833C266.801 269.799 267.418 272.722 268.469 275.501C269.636 278.92 270.558 281.62 268.608 287.252L267.665 289.976C268.154 291.328 268.323 292.775 268.157 294.204C267.991 295.633 267.496 297.003 266.71 298.208L266.521 298.497L274.873 319.634L257.542 319.638Z" fill="#2F2E41"/>
<path d="M236.732 308.405L221.628 307.001L226.979 289.888C228.084 278.714 230.866 267.771 235.232 257.427L242.531 240.129C242.548 239.745 242.58 239.357 242.628 238.978C242.848 237.109 243.439 235.304 244.365 233.666C245.29 232.029 246.533 230.592 248.02 229.44C249.444 228.326 251.076 227.507 252.82 227.03C254.564 226.553 256.385 226.428 258.178 226.662L294.342 231.342L295.917 218.122L330.628 213.477L330.787 213.736C336.854 223.607 340.706 231.335 342.909 238.056C343.019 238.399 343.118 238.749 343.202 239.097C345 246.573 340.51 254.151 333.193 255.991C314.545 260.746 292.12 260.614 262.637 255.574L248.368 289.531C247.004 292.774 245.316 295.871 243.328 298.775L236.732 308.405Z" fill="#2F2E41"/>
<path d="M289.416 136.977C299.079 136.977 306.912 128.97 306.912 119.092C306.912 109.214 299.079 101.206 289.416 101.206C279.754 101.206 271.921 109.214 271.921 119.092C271.921 128.97 279.754 136.977 289.416 136.977Z" fill="#9E616A"/>
<path d="M294.468 231.966L291.958 222.973L291.341 218.537L287.732 218.657L280.651 202.312L277.901 198.002C277.34 197.412 276.832 196.844 276.376 196.298C273.51 193.059 271.212 189.359 269.58 185.354C268.435 182.477 267.764 179.433 267.59 176.341C267.077 167.209 270.926 157.547 279.36 146.804C279.222 146.424 279.129 146.028 279.085 145.626C278.934 144.321 279.305 143.01 280.116 141.976C280.928 140.943 282.114 140.272 283.418 140.11L291.552 139.196C292.184 139.125 292.825 139.179 293.436 139.358C294.047 139.536 294.617 139.834 295.112 140.234C295.628 140.648 296.057 141.161 296.374 141.743C296.69 142.324 296.888 142.963 296.955 143.622C297.064 144.641 296.864 145.669 296.38 146.573C300.526 147.099 304.432 148.811 307.63 151.502C310.828 154.192 313.182 157.749 314.409 161.744C319.276 170.83 323.156 180.412 325.981 190.325C326.538 192.266 326.29 194.267 326.05 196.202C325.828 197.989 325.599 199.837 325.985 201.679C326.376 203.552 327.319 205.431 328.317 207.421C329.46 209.699 330.641 212.056 330.961 214.457L330.983 214.626L294.468 231.966Z" fill="white"/>
<path opacity="0.2" d="M269.796 185.266C271.421 189.247 273.707 192.926 276.555 196.148C277.043 196.731 277.558 197.303 278.098 197.877L280.865 202.219C291.068 194.572 299.334 164.462 299.334 164.462L287.823 162.223L269.796 185.266Z" fill="black"/>
<path d="M262.827 138.648C263.835 140.38 264.127 142.436 263.642 144.38C263.157 146.324 261.933 148.002 260.229 149.057C259.88 149.266 259.514 149.445 259.134 149.594L259.949 176.414L248.335 169.102L249.342 144.755C248.848 143.135 248.904 141.396 249.501 139.811C250.099 138.226 251.204 136.884 252.645 135.993C253.484 135.485 254.417 135.151 255.388 135.01C256.358 134.869 257.347 134.924 258.297 135.171C259.246 135.419 260.136 135.854 260.914 136.451C261.692 137.048 262.342 137.795 262.827 138.648Z" fill="#9E616A"/>
<path d="M260.97 166.29L248.198 168.106L248.747 194.555C248.779 196.442 249.293 198.29 250.239 199.922C251.186 201.554 252.535 202.917 254.157 203.882C256.139 205.048 258.446 205.538 260.73 205.279C263.015 205.019 265.153 204.024 266.823 202.444L296.977 173.44C299.099 171.427 300.369 168.678 300.525 165.758C300.682 162.838 299.714 159.969 297.82 157.74C296.882 156.631 295.732 155.721 294.436 155.065C293.141 154.409 291.726 154.019 290.278 153.92C288.829 153.821 287.375 154.014 286.002 154.487C284.629 154.961 283.365 155.705 282.285 156.677C281.987 156.943 281.704 157.225 281.436 157.522L261.525 180.428L260.97 166.29Z" fill="white"/>
<path d="M154.145 338.811L163.211 338.81L167.524 303.842L154.144 303.843L154.145 338.811Z" fill="#FFB6B6"/>
<path d="M102.759 137.497C112.753 137.497 120.853 129.396 120.853 119.403C120.853 109.41 112.753 101.309 102.759 101.309C92.7665 101.309 84.6656 109.41 84.6656 119.403C84.6656 129.396 92.7665 137.497 102.759 137.497Z" fill="#FFB6B6"/>
<path d="M166.169 328.039H153.332L150.059 323.652L149.173 319.518L148.41 318.781C147.376 317.788 146.707 316.475 146.513 315.054C146.318 313.634 146.608 312.189 147.337 310.954L138.033 267.545C135.597 267.331 108.116 264.874 89.0127 261.493C84.1239 260.628 80.3069 258.251 77.6677 254.43C71.1827 245.039 73.9607 229.844 73.9895 229.692L74.0215 229.522L74.1929 229.503L118.813 224.495L118.873 224.523C120.354 225.224 155.203 241.769 160.898 247.464C163.47 250.035 169.207 265.314 170.492 281.558C170.722 284.468 169.894 287.431 169.093 290.298C168.344 292.979 167.569 295.752 167.722 298.373C167.958 302.418 168.182 306.661 168.387 310.984C168.42 311.673 168.939 312.386 169.441 313.075C169.965 313.795 170.461 314.475 170.492 315.187C170.797 322.091 166.285 327.892 166.239 327.95L166.169 328.039Z" fill="#2F2E41"/>
<path d="M169.093 167.596C168.121 167.33 167.102 167.281 166.109 167.451C165.116 167.622 164.172 168.008 163.344 168.582C162.517 169.157 161.825 169.906 161.318 170.777C160.811 171.648 160.501 172.619 160.41 173.623L145.376 178.322L146.004 188.154L167.141 181.22C168.837 181.261 170.489 180.679 171.785 179.583C173.08 178.487 173.928 176.954 174.168 175.275C174.409 173.595 174.025 171.886 173.09 170.471C172.154 169.056 170.732 168.033 169.093 167.596Z" fill="#FFB6B6"/>
<path d="M159.284 183.867L148.047 188.119L147.76 188.677C147.071 190.013 145.88 191.021 144.448 191.479C143.016 191.937 141.46 191.807 140.124 191.118L114.869 200.677C114.869 200.677 103.59 189.39 95.5605 179.318L98.2972 162.485C98.9311 158.579 100.278 154.824 102.272 151.406C118.739 155.017 128.192 178.038 128.192 178.038L157.872 172.375L159.284 183.867Z" fill="#F84D48"/>
<path d="M100.188 136.529C95.6585 137.753 90.6645 136.126 87.1295 133.041C83.5944 129.956 81.3831 125.584 80.1089 121.068C79.1757 117.761 78.7333 114.09 80.2059 110.985C81.6784 107.88 85.6417 105.785 88.6993 107.353C86.8131 105.156 87.7554 101.521 89.9583 99.6411C92.1613 97.7611 95.1863 97.2221 98.0674 96.9275C102.249 96.4999 106.568 96.452 110.546 97.8066C114.525 99.1612 118.14 102.123 119.385 106.137C120.657 106.729 122.089 106.883 123.458 106.574C124.826 106.265 126.054 105.511 126.948 104.43C127.178 105.671 126.993 106.954 126.421 108.08C125.849 109.206 124.922 110.112 123.783 110.658L129.879 108.682C130.927 110.901 129.09 113.647 126.741 114.358C124.392 115.069 121.856 114.292 119.627 113.265C117.397 112.238 115.237 110.94 112.815 110.54C110.394 110.14 107.55 110.918 106.43 113.101C105.843 114.245 105.812 115.585 105.472 116.825C105.131 118.064 104.268 119.349 102.987 119.451C102.177 119.515 101.384 119.084 100.577 119.172C99.576 119.281 98.8099 120.188 98.5433 121.159C98.3423 122.148 98.3399 123.168 98.5361 124.158L100.085 135.995" fill="#2F2E41"/>
<path d="M77.7717 256.592C77.7683 256.592 77.7648 256.591 77.7615 256.591L77.6184 256.566L77.577 256.427C77.0569 254.677 76.3949 252.886 75.7547 251.154C74.8119 248.755 74.0158 246.302 73.3709 243.806C72.8633 241.42 72.5114 239.004 72.3173 236.573C72.1387 234.807 71.954 232.982 71.64 231.185C71.5006 230.387 72.029 229.632 72.54 228.901C73.0138 228.223 73.4614 227.583 73.3675 226.978C73.2714 226.359 72.5849 225.679 71.921 225.021C71.1932 224.301 70.4407 223.555 70.3342 222.771C68.8838 212.068 68.2086 201.275 68.3141 190.474C68.464 175.532 69.1394 165.346 70.3212 160.201C73.4993 146.366 88.1819 143.842 90.4801 143.53C90.7249 142.878 91.1012 142.283 91.5857 141.783C92.0702 141.283 92.6525 140.888 93.2963 140.622C93.9401 140.357 94.6317 140.227 95.328 140.24C96.0243 140.253 96.7104 140.41 97.3436 140.7L107.776 145.475C109.892 146.447 111.786 147.844 113.339 149.579C114.892 151.314 116.073 153.35 116.806 155.56L118.356 160.285L119.132 192L114.83 214.334L123.235 226.942C78.4382 251.537 77.916 256.592 77.7717 256.592Z" fill="#F84D48"/>
<path d="M149.267 335.287L152.214 335.287L163.722 330.607L169.89 335.286H169.891C173.376 335.287 176.719 336.671 179.183 339.136C181.648 341.6 183.033 344.943 183.033 348.429V348.856L149.267 348.857L149.267 335.287Z" fill="#2F2E41"/>
<path d="M172.857 190.228C171.988 189.718 171.018 189.405 170.014 189.31C169.011 189.216 167.999 189.342 167.05 189.681C166.101 190.02 165.238 190.562 164.522 191.271C163.805 191.979 163.252 192.836 162.903 193.781L147.164 194.395L145.043 201.726L167.418 202.872C169.045 203.354 170.792 203.222 172.328 202.502C173.864 201.783 175.083 200.524 175.754 198.966C176.424 197.407 176.499 195.657 175.965 194.047C175.432 192.436 174.325 191.078 172.857 190.228Z" fill="#FFB6B6"/>
<path d="M159.928 203.662L143.761 203.461L141.715 203.433L108.821 203.019C108.821 203.019 99.8891 194.497 92.1112 185.724L93.2014 177.838C94.2648 170.1 98.1035 163.011 104.003 157.892C115.143 165.335 121.603 180.069 121.603 180.069L132.435 184.916C140.058 185.257 147.486 187.432 154.089 191.257L157.651 193.321L159.928 203.662Z" fill="#F84D48"/>
<path d="M278.733 343.04L273.353 344.367L271.14 339.525L269.934 345.211L255.667 348.732C254.983 348.901 254.263 348.847 253.612 348.577C252.961 348.308 252.413 347.838 252.049 347.235C251.684 346.632 251.522 345.929 251.585 345.227C251.648 344.526 251.934 343.863 252.401 343.335L261.853 332.655L260.586 327.52L272.746 325.278L278.733 343.04Z" fill="#2F2E41"/>
<path d="M221.744 344.7L216.614 342.606L217.676 337.389L213.354 341.275L199.748 335.721C199.096 335.455 198.546 334.987 198.178 334.386C197.811 333.786 197.645 333.083 197.705 332.381C197.765 331.679 198.048 331.015 198.512 330.485C198.976 329.956 199.598 329.588 200.286 329.437L214.214 326.368L216.212 321.471L227.362 326.818L221.744 344.7Z" fill="#2F2E41"/>
<path d="M203.88 201.96H199.677C195.158 201.955 190.826 200.157 187.631 196.962C184.436 193.767 182.638 189.435 182.633 184.916V184.682H220.924V184.916C220.919 189.435 219.121 193.767 215.926 196.962C212.731 200.157 208.399 201.955 203.88 201.96Z" fill="#E4E4E4"/>
<path d="M199.677 178.612C199.677 179.772 197.576 180.713 197.576 180.713C197.576 180.713 195.475 179.772 195.475 178.612C195.475 177.451 197.576 176.511 197.576 176.511C197.576 176.511 199.677 177.451 199.677 178.612Z" fill="#3F3D56"/>
<path d="M212.285 178.612C212.285 179.772 210.184 180.713 210.184 180.713C210.184 180.713 208.082 179.772 208.082 178.612C208.082 177.451 210.184 176.511 210.184 176.511C210.184 176.511 212.285 177.451 212.285 178.612Z" fill="#3F3D56"/>
<path d="M203.88 182.815C203.88 183.975 201.779 184.916 201.779 184.916C201.779 184.916 199.677 183.975 199.677 182.815C199.677 181.654 201.779 180.713 201.779 180.713C201.779 180.713 203.88 181.654 203.88 182.815Z" fill="#3F3D56"/>
<path d="M189.171 174.176C190.331 174.176 191.272 173.235 191.272 172.074C191.272 170.914 190.331 169.973 189.171 169.973C188.01 169.973 187.069 170.914 187.069 172.074C187.069 173.235 188.01 174.176 189.171 174.176Z" fill="#3F3D56"/>
<path d="M158.61 167.559L191.751 172.136C192.051 172.177 192.34 172.279 192.599 172.435C192.858 172.591 193.084 172.798 193.261 173.043C193.438 173.288 193.564 173.567 193.63 173.862C193.697 174.158 193.703 174.463 193.648 174.761C193.593 175.058 193.478 175.342 193.31 175.594C193.143 175.846 192.926 176.061 192.673 176.227C192.42 176.393 192.136 176.506 191.838 176.559C191.54 176.612 191.234 176.604 190.939 176.536L158.348 168.977C158.167 168.935 158.01 168.825 157.908 168.669C157.806 168.514 157.768 168.325 157.801 168.143C157.835 167.96 157.938 167.797 158.089 167.689C158.239 167.58 158.426 167.533 158.61 167.559Z" fill="#E4E4E4"/>
<path d="M198.883 63.1389V0H194.68V63.1389C188.938 63.6628 183.599 66.3141 179.711 70.5723C175.823 74.8304 173.668 80.3879 173.667 86.1539V92.4579H188.376C188.376 94.6871 189.262 96.8251 190.838 98.4014C192.414 99.9776 194.552 100.863 196.781 100.863C199.011 100.863 201.149 99.9776 202.725 98.4014C204.301 96.8251 205.187 94.6871 205.187 92.4579H219.896V86.1539C219.895 80.388 217.739 74.8304 213.852 70.5723C209.964 66.3141 204.625 63.6628 198.883 63.1389Z" fill="#F0F0F0"/>
<path d="M252.992 47.3542V0H249.84V47.3542C245.533 47.7471 241.529 49.7356 238.613 52.9292C235.697 56.1228 234.08 60.291 234.08 64.6155V69.3435H245.112C245.112 71.0154 245.776 72.6188 246.958 73.801C248.14 74.9832 249.744 75.6474 251.416 75.6474C253.088 75.6474 254.691 74.9832 255.873 73.801C257.055 72.6188 257.72 71.0154 257.72 69.3435H268.751V64.6155C268.751 60.291 267.134 56.1228 264.218 52.9292C261.302 49.7356 257.298 47.7471 252.992 47.3542Z" fill="#F0F0F0"/>
<path d="M146.525 47.3542V0H143.373V47.3542C139.066 47.7471 135.062 49.7356 132.146 52.9292C129.23 56.1228 127.614 60.291 127.613 64.6155V69.3435H138.645C138.645 71.0154 139.309 72.6188 140.491 73.801C141.674 74.9832 143.277 75.6474 144.949 75.6474C146.621 75.6474 148.224 74.9832 149.406 73.801C150.589 72.6188 151.253 71.0154 151.253 69.3435H162.285V64.6155C162.284 60.291 160.667 56.1228 157.752 52.9292C154.836 49.7356 150.831 47.7471 146.525 47.3542Z" fill="#F0F0F0"/>
<path d="M336.233 111.335C333.259 107.867 331.845 103.266 329.468 99.3274C327.091 95.3892 322.953 91.8646 318.583 92.781C315.57 93.4128 313.241 96.0714 312.063 99.0355C310.884 102 310.663 105.268 310.457 108.471C310.53 101.89 306.194 95.5101 300.222 93.4103C294.25 91.3105 287.102 93.6527 283.349 98.9396C281.712 97.4217 279.574 96.5574 277.342 96.5105C275.109 96.4637 272.937 97.2375 271.237 98.6853C267.881 101.685 267.138 107.396 269.606 111.222C272.075 115.049 277.421 116.475 281.344 114.352L282.731 115.628C281.951 118.359 283.465 121.584 286.01 122.612C288.073 123.446 290.987 123.307 291.759 125.473C292.299 126.986 291.29 128.601 290.217 129.764C289.144 130.927 287.87 132.128 287.742 133.737C287.547 136.165 290.056 137.865 292.337 138.378C297.836 139.613 303.938 137.066 307.108 132.213C307.169 132.119 307.236 132.025 307.307 131.931C309.086 129.657 310.382 127.044 311.116 124.252C311.851 121.46 312.008 118.548 311.579 115.693C311.401 114.571 311.58 113.737 312.354 113.471C315.697 112.323 325.062 114.733 327.897 116.911C330.731 119.089 333.001 121.971 335.731 124.29C338.462 126.609 341.941 128.397 345.407 127.766C348.184 127.26 350.546 125.244 352.135 122.813C353.723 120.382 354.637 117.548 355.456 114.731C349.317 118.278 340.914 116.793 336.233 111.335Z" fill="#2F2E41"/>
</g>
<defs>
<clipPath id="clip0_14_237">
<rect width="417.312" height="350" fill="white"/>
</clipPath>
</defs>
</svg>
