<svg width="418" height="350" viewBox="0 0 418 350" fill="none" xmlns="http://www.w3.org/2000/svg">
<g clip-path="url(#clip0_22_500)">
<path d="M208.355 179.573C202.778 179.573 197.43 177.114 193.487 172.737C189.543 168.36 187.328 162.424 187.328 156.234C187.328 150.044 189.543 144.108 193.487 139.731C197.43 135.354 202.778 132.895 208.355 132.895C208.455 132.895 208.555 132.902 208.655 132.903V105.5L208.443 105.264L208.225 105.506C204.269 101.165 199.555 97.7664 194.374 95.5193C189.192 93.2722 183.652 92.2235 178.092 92.4375C172.532 92.6515 167.071 94.1238 162.042 96.7641C157.013 99.4043 152.523 103.157 148.847 107.792C145.171 112.426 142.387 117.846 140.665 123.717C138.944 129.589 138.32 135.789 138.834 141.937C139.348 148.085 140.988 154.053 143.653 159.473C146.318 164.893 149.952 169.651 154.333 173.457L204.524 229.167C204.847 229.525 205.257 229.769 205.704 229.868C206.151 229.967 206.615 229.917 207.037 229.725C207.458 229.532 207.819 229.205 208.073 228.786C208.328 228.366 208.465 227.872 208.467 227.366L208.655 179.564C208.555 179.566 208.455 179.573 208.355 179.573Z" fill="#F84D48"/>
<path d="M269.965 109.416C268.935 107.954 267.824 106.564 266.64 105.254C262.847 101.043 258.344 97.7031 253.387 95.4244C248.431 93.1456 243.119 91.9728 237.754 91.9727C232.389 91.9727 227.077 93.1456 222.121 95.4243C217.164 97.7031 212.661 101.043 208.867 105.254C208.796 105.333 208.731 105.416 208.66 105.495L208.655 105.49V132.893C208.555 132.892 208.455 132.885 208.355 132.885C207.45 132.887 206.546 132.953 205.648 133.084C205.32 131.618 204.688 130.258 203.802 129.112C202.915 127.966 201.8 127.067 200.544 126.485C199.288 125.904 197.927 125.657 196.57 125.764C195.213 125.871 193.897 126.329 192.728 127.102C191.559 127.875 190.569 128.941 189.838 130.214C189.107 131.488 188.654 132.934 188.516 134.436C188.379 135.939 188.56 137.456 189.045 138.867C189.531 140.278 190.307 141.543 191.312 142.561C190.809 143.331 190.349 144.134 189.934 144.967C188.744 144.741 187.525 144.792 186.354 145.117C185.183 145.442 184.086 146.033 183.131 146.853C182.177 147.674 181.386 148.705 180.809 149.882C180.232 151.059 179.882 152.356 179.78 153.691C179.679 155.026 179.828 156.37 180.219 157.638C180.609 158.905 181.233 160.069 182.05 161.055C182.867 162.042 183.86 162.829 184.965 163.367C186.071 163.905 187.265 164.183 188.472 164.183C188.509 164.183 188.545 164.177 188.582 164.176C189.186 166.023 189.998 167.777 190.999 169.397C190.304 170.482 189.818 171.713 189.571 173.015C189.324 174.317 189.322 175.662 189.565 176.965C189.808 178.268 190.29 179.502 190.981 180.589C191.673 181.676 192.559 182.592 193.585 183.282C194.61 183.971 195.753 184.418 196.941 184.595C198.129 184.772 199.337 184.675 200.49 184.311C201.643 183.946 202.716 183.321 203.641 182.475C204.567 181.629 205.325 180.58 205.869 179.395C206.694 179.505 207.524 179.561 208.355 179.562C208.455 179.562 208.555 179.556 208.655 179.554V227.082C208.655 227.589 208.79 228.084 209.044 228.506C209.298 228.927 209.659 229.256 210.081 229.45C210.503 229.644 210.967 229.695 211.415 229.596C211.863 229.497 212.274 229.253 212.597 228.894L262.977 172.975C271.497 165.575 277.02 154.721 278.33 142.802C279.641 130.882 276.632 118.873 269.965 109.416Z" fill="white"/>
<path d="M348.157 337.524L342.234 337.423L339.766 312.019L348.508 312.168L348.157 337.524Z" fill="#FFB6B6"/>
<path d="M351.094 348.463L351.053 347.844L350.867 344.752L350.152 333.057L348.222 332.896L341.738 332.354L340.697 332.263L340.639 336.768L331.545 343.506C331.16 343.793 330.854 344.19 330.659 344.656C330.464 345.122 330.387 345.638 330.437 346.149C330.488 346.66 330.663 347.145 330.944 347.553C331.226 347.961 331.602 348.276 332.033 348.463C332.313 348.587 332.61 348.653 332.911 348.657L344.18 348.851L344.355 348.463L346.181 344.429L346.809 348.463L346.878 348.896L351.123 348.967L351.094 348.463Z" fill="#2F2E41"/>
<path d="M360.251 329.139L355.581 333.183L339.305 315.114L346.197 309.145L360.251 329.139Z" fill="#FFB6B6"/>
<path d="M369.027 335.987L359.281 324.266L357.682 325.486L352.333 329.578L351.472 330.237L353.967 333.786L350.867 344.752L350.693 345.365C350.575 345.781 350.547 346.222 350.609 346.652C350.672 347.082 350.824 347.49 351.053 347.844C351.071 347.876 351.094 347.902 351.112 347.934C351.253 348.138 351.422 348.316 351.612 348.463C352.048 348.82 352.576 349.012 353.118 349.012C353.66 349.014 354.188 348.822 354.624 348.463C354.641 348.45 354.653 348.437 354.67 348.425L363.549 340.731L362.613 335.897L365.678 338.885L369.027 335.987Z" fill="#2F2E41"/>
<path d="M364.818 170.108L357.302 139.229C356.98 137.922 356.208 136.808 355.152 136.127C354.096 135.446 352.842 135.253 351.659 135.59C351.068 135.758 350.512 136.054 350.023 136.461C349.535 136.868 349.123 137.378 348.812 137.961C348.501 138.545 348.296 139.191 348.21 139.862C348.124 140.533 348.158 141.216 348.309 141.873C348.33 141.962 348.352 142.049 348.377 142.137L357.07 173.946L361.619 193.522C360.956 194.083 360.465 194.857 360.213 195.739C359.961 196.621 359.959 197.567 360.209 198.45C360.458 199.333 360.946 200.109 361.607 200.673C362.267 201.237 363.068 201.562 363.901 201.603C364.734 201.644 365.557 201.4 366.261 200.904C366.964 200.407 367.512 199.682 367.831 198.828C368.151 197.973 368.225 197.03 368.044 196.127C367.864 195.224 367.437 194.404 366.823 193.779L364.818 170.108Z" fill="#FFB8B8"/>
<path d="M310.182 163.845L330.242 140.882C331.089 139.906 331.557 138.6 331.544 137.245C331.532 135.89 331.039 134.595 330.174 133.639C329.741 133.161 329.227 132.782 328.662 132.524C328.097 132.267 327.492 132.135 326.881 132.136C326.271 132.138 325.666 132.273 325.102 132.535C324.539 132.796 324.027 133.177 323.596 133.658C323.538 133.723 323.481 133.789 323.427 133.857L303.248 158.419L290.42 172.771C289.647 172.426 288.796 172.354 287.985 172.564C287.173 172.775 286.44 173.258 285.884 173.947C285.328 174.636 284.977 175.499 284.878 176.417C284.779 177.336 284.937 178.266 285.331 179.081C285.725 179.896 286.336 180.557 287.08 180.974C287.824 181.391 288.666 181.543 289.49 181.41C290.315 181.277 291.083 180.866 291.69 180.232C292.297 179.598 292.713 178.772 292.882 177.866L310.182 163.845Z" fill="#FFB8B8"/>
<path d="M325.014 168.538L328.966 187.967L354.724 186.18C352.034 176.153 351.095 174.129 353.116 167.151L325.014 168.538Z" fill="#FFB8B8"/>
<path d="M344.448 122.79H333.917L329.394 131.38L327.239 131.248C322.79 130.976 312.071 141.459 312.071 146.405L318.233 155.206L323.6 149.845C323.6 149.845 316.954 153.607 323.794 158.126C323.794 158.126 322.574 166.641 323.794 166.55C325.014 166.458 327.824 164.725 325.014 166.458C322.204 168.191 322.414 168.424 322.777 168.827L323.141 169.231L352.69 174.738C352.69 174.738 353.554 168.38 353.648 167.246C353.741 166.111 353.116 168.884 353.741 166.111C354.365 163.339 355.302 164.378 354.365 163.339C353.429 162.299 356.142 149.418 353.263 144.421L352.041 159.971L362.237 156.398C363.483 150.19 362.352 143.82 359.554 137.337C359.554 132.544 355.236 130.746 350.918 130.746H350.365L344.448 122.79Z" fill="white"/>
<path d="M355.736 184.365L356.628 195.346C356.628 195.346 366.635 206.368 363.241 220.513C359.847 234.659 353.528 273.193 353.528 273.193C353.528 273.193 356.892 308.041 349.784 323.171L339.095 320.807L332.709 273.531L329.796 219.768L327.497 204.497L328.966 186.776L355.736 184.365Z" fill="#2F2E41"/>
<path d="M334.607 198.226L327.496 204.497L312.129 277.583L346.368 326.068L352.976 319.288L330.039 274.932L335.406 235.023L331.406 216.194L334.607 198.226Z" fill="#2F2E41"/>
<path d="M323.981 106.555C327.583 113.442 320.801 125.047 327.636 127.457L327.073 126.832C322.947 121.199 331.571 109.275 327.445 103.642C326.804 102.816 326.254 101.908 325.806 100.937L323.981 106.555Z" fill="#2F2E41"/>
<path d="M352.086 105.511C352.087 107.743 351.594 109.941 350.65 111.912C349.707 113.884 348.342 115.568 346.676 116.817C345.009 118.066 343.092 118.842 341.092 119.077C339.092 119.311 337.071 118.997 335.206 118.163C333.341 117.328 331.689 115.998 330.395 114.289C329.101 112.58 328.205 110.545 327.786 108.362C327.366 106.179 327.435 103.915 327.988 101.769C328.541 99.6225 329.559 97.6597 330.955 96.0526L331.014 95.9872C331.112 95.8726 331.211 95.7581 331.314 95.6489C331.314 95.649 331.315 95.6488 331.316 95.6486C331.316 95.6483 331.317 95.648 331.317 95.6475C331.318 95.647 331.318 95.6464 331.318 95.6458C331.319 95.6451 331.319 95.6444 331.319 95.6437C331.446 95.5128 331.574 95.3817 331.707 95.2562C333.482 93.5287 335.668 92.4057 338.004 92.0216C340.339 91.6376 342.725 92.0088 344.875 93.0908C347.025 94.1727 348.849 95.9197 350.128 98.1224C351.407 100.325 352.087 102.89 352.086 105.511Z" fill="#2F2E41"/>
<path d="M336.774 120.101C342.463 120.101 347.076 114.981 347.076 108.666C347.076 102.351 342.463 97.2312 336.774 97.2312C331.084 97.2312 326.472 102.351 326.472 108.666C326.472 114.981 331.084 120.101 336.774 120.101Z" fill="#FFB8B8"/>
<path d="M344.134 97.6717C342.538 96.0138 340.554 94.8891 338.408 94.4267C336.262 93.9643 334.043 94.183 332.004 95.0577C331.952 95.0836 331.894 95.1094 331.841 95.1352C331.638 95.2255 331.434 95.3288 331.231 95.4385L331.115 95.4966V95.516L331.045 95.5741C330.997 95.6227 330.939 95.6581 330.876 95.6773C329.981 95.6509 329.091 95.8344 328.265 96.2159C327.438 96.5973 326.693 97.1682 326.079 97.8911C324.486 99.8145 323.73 102.925 323.962 106.643L323.968 106.759L324.061 106.824C324.09 106.843 324.113 106.863 324.143 106.882C324.957 107.443 325.73 107.94 326.48 108.379C326.934 108.65 327.376 108.896 327.818 109.121L327.974 109.199C328.143 109.289 328.318 109.373 328.486 109.457C332.743 111.522 336.668 111.845 340.436 110.457L340.505 110.432L341.773 108.076L342.174 107.334C342.261 107.863 342.314 108.695 342.372 109.651C342.437 111.142 342.587 112.627 342.82 114.098V114.111C343.052 115.414 343.413 116.466 344.006 116.815C344.094 116.877 344.193 116.919 344.297 116.938L345.239 115.556L347.716 111.929L347.756 111.716C348.762 106.675 347.309 101.034 344.134 97.6717Z" fill="#2F2E41"/>
<path d="M384.843 117.557C382.756 120.629 377.29 125.825 374.225 127.619C373.917 127.8 373.609 127.968 373.295 128.123C373.602 127.31 373.661 126.408 373.464 125.554C373.114 124.531 372.547 123.617 371.812 122.888C369.922 120.687 368.031 118.489 366.137 116.292C367.41 118.163 368.315 120.31 368.793 122.593C369.272 124.877 369.314 127.246 368.916 129.549C367.337 129.811 365.728 129.758 364.166 129.394C360.781 128.581 357.676 126.038 356.333 122.495C355.188 119.5 355.351 116.098 355.717 112.871C356.083 109.644 356.647 106.378 356.24 103.158C355.839 99.9307 354.24 96.6584 351.513 95.4579C351.648 95.5803 351.757 95.7333 351.834 95.9067C351.911 96.0801 351.954 96.2697 351.96 96.463C351.965 96.6562 351.933 96.8486 351.866 97.027C351.799 97.2054 351.698 97.3659 351.571 97.4975C351.159 97.8903 350.625 98.0894 350.082 98.0525C349.913 98.054 349.743 98.0389 349.576 98.0073C347.407 97.6265 345.82 95.6128 344.436 93.7153C344.086 93.6607 343.756 93.5007 343.483 93.2527C343.209 93.0046 343.002 92.6779 342.884 92.3083C342.753 91.919 342.753 91.4905 342.884 91.1013C343.019 90.8026 343.22 90.5457 343.467 90.3537C343.713 90.1618 343.999 90.0405 344.299 90.0009C344.598 89.9613 344.902 90.0045 345.182 90.1267C345.463 90.2489 345.712 90.4462 345.907 90.7012C345.703 89.7819 345.68 88.8247 345.84 87.8948C345.999 86.9648 346.338 86.084 346.832 85.3122C347.325 84.5404 347.963 83.8959 348.702 83.4225C349.441 82.9491 350.262 82.6579 351.111 82.5688C353.618 82.3042 357.601 81.8847 359.258 83.9952C361.846 87.2998 365.817 90.6108 366.236 94.9674C366.649 99.3175 368.817 98.4527 369.725 102.712C370.632 106.979 374.359 108.45 377.865 110.458C381.784 112.704 381.244 120.397 384.843 117.557Z" fill="#2F2E41"/>
<path d="M341.695 107.927C345.297 114.814 338.514 126.419 345.35 128.829L344.787 128.204C340.661 122.57 349.285 110.647 345.159 105.014C344.518 104.187 343.967 103.279 343.519 102.309L341.695 107.927Z" fill="#2F2E41"/>
<path d="M347.275 111.609C346.091 107.647 343.969 104.111 341.13 101.373C338.292 98.6352 334.842 96.7955 331.142 96.0471C331.127 96.0417 331.078 96.0199 331.014 95.9872C330.975 95.9599 330.926 95.9326 330.876 95.9054C331.024 95.8126 331.166 95.7309 331.314 95.649C331.314 95.649 331.315 95.6489 331.316 95.6486C331.316 95.6483 331.317 95.648 331.317 95.6475C331.318 95.647 331.318 95.6464 331.318 95.6458C331.319 95.6451 331.319 95.6444 331.319 95.6437C331.446 95.5128 331.574 95.3817 331.707 95.2562L332.08 95.2726C332.08 95.2726 345.206 92.9654 347.275 111.609Z" fill="#FD6584"/>
<path d="M141.952 141.319C141.816 142.398 141.305 143.375 140.53 144.043C139.754 144.711 138.774 145.016 137.799 144.894C137.601 144.866 137.405 144.819 137.214 144.755L120.852 166.764L115.618 159.019L134.91 139.394C135.211 138.535 135.759 137.811 136.469 137.335C137.18 136.859 138.012 136.657 138.837 136.761C139.305 136.825 139.758 136.991 140.169 137.249C140.58 137.508 140.941 137.853 141.231 138.267C141.522 138.68 141.736 139.152 141.862 139.658C141.988 140.163 142.023 140.691 141.966 141.211C141.962 141.247 141.957 141.283 141.952 141.319Z" fill="#A0616A"/>
<path d="M93.5397 137.017C93.5397 137.017 104.46 135.641 106.786 141.45C109.111 147.259 114.973 159.354 114.973 159.354C114.973 159.354 111.967 160.775 115.037 157.083C116.413 155.428 113.874 156.437 115.618 155.792C117.363 155.147 117.944 155.792 117.944 155.792L123.759 166.764C123.759 166.764 123.291 169.265 120.27 169.346C117.249 169.427 122.015 166.119 117.944 170.637C115.843 172.97 114.418 172.083 114.418 172.083L88.7048 156.289L93.5397 137.017Z" fill="#3F3D56"/>
<path d="M43.6465 223.709C44.3443 222.943 44.7453 221.905 44.764 220.816C44.7828 219.726 44.4178 218.672 43.7469 217.877C43.6082 217.717 43.4579 217.571 43.2974 217.439L51.0742 186.127L41.7706 181.609L38.0478 218.592C37.6072 219.373 37.4118 220.293 37.4921 221.21C37.5724 222.127 37.9239 222.989 38.4917 223.66C38.8181 224.039 39.2086 224.343 39.6407 224.554C40.0729 224.765 40.5383 224.88 41.0104 224.892C41.4826 224.904 41.9521 224.812 42.3923 224.622C42.8325 224.432 43.2348 224.148 43.576 223.786C43.5998 223.761 43.6233 223.735 43.6465 223.709Z" fill="#A0616A"/>
<path d="M64.8429 133.565C64.8429 133.565 60.1602 125.95 52.1569 135.843C44.1535 145.737 41.6582 171.538 42.0336 173.159C42.4091 174.781 44.5197 173.851 42.0107 176.575C39.5017 179.299 37.7572 177.362 39.5017 179.299C41.2461 181.235 40.6835 184.133 37.7002 184.836C34.7169 185.538 50.5254 188.329 50.5254 188.329C50.5254 188.329 52.2164 187.643 52.2879 183.121C52.328 180.58 51.165 179.29 52.9095 178.644C54.6539 177.999 52.5088 173.689 52.6923 172.944C52.8757 172.199 60.4349 158.645 60.4349 158.645L64.8429 133.565Z" fill="#3F3D56"/>
<path d="M170.173 320.298C170.416 318.444 168.667 316.626 166.265 316.238C163.864 315.851 161.72 317.039 161.477 318.894C161.234 320.748 162.984 322.566 165.385 322.953C167.786 323.341 169.93 322.152 170.173 320.298Z" fill="#F2F2F2"/>
<path d="M198.766 317.201C199.009 315.347 197.259 313.529 194.857 313.142C192.456 312.754 190.312 313.943 190.069 315.797C189.826 317.651 191.576 319.469 193.977 319.857C196.379 320.244 198.522 319.056 198.766 317.201Z" fill="#F2F2F2"/>
<path d="M162.344 294.605C162.587 292.751 160.837 290.933 158.436 290.545C156.034 290.157 153.891 291.346 153.647 293.201C153.404 295.055 155.154 296.873 157.556 297.26C159.957 297.648 162.101 296.459 162.344 294.605Z" fill="#F2F2F2"/>
<path d="M149.92 284.081C149.931 282.378 149.076 280.991 148.009 280.982C146.942 280.973 146.068 282.346 146.056 284.048C146.045 285.751 146.9 287.138 147.967 287.147C149.034 287.156 149.908 285.783 149.92 284.081Z" fill="#F2F2F2"/>
<path d="M145.707 264.478C145.718 262.776 144.863 261.389 143.796 261.38C142.729 261.371 141.855 262.744 141.843 264.446C141.831 266.148 142.687 267.535 143.754 267.544C144.821 267.553 145.695 266.181 145.707 264.478Z" fill="#F2F2F2"/>
<path d="M178.47 298.977C178.482 297.275 177.626 295.888 176.559 295.879C175.492 295.87 174.618 297.243 174.607 298.945C174.595 300.647 175.45 302.035 176.517 302.043C177.584 302.052 178.459 300.68 178.47 298.977Z" fill="#F2F2F2"/>
<path d="M164.653 306.635C164.665 304.932 163.809 303.545 162.742 303.536C161.675 303.527 160.801 304.9 160.79 306.602C160.778 308.305 161.633 309.692 162.7 309.701C163.767 309.71 164.642 308.337 164.653 306.635Z" fill="#F2F2F2"/>
<path d="M183.887 320.787C183.899 319.085 183.043 317.698 181.976 317.689C180.909 317.68 180.035 319.053 180.023 320.755C180.012 322.457 180.867 323.844 181.934 323.853C183.001 323.862 183.875 322.49 183.887 320.787Z" fill="#F2F2F2"/>
<path d="M281.817 93.1096C282.06 91.2552 280.311 89.4376 277.909 89.0498C275.508 88.662 273.364 89.8508 273.121 91.7051C272.878 93.5594 274.627 95.377 277.029 95.7649C279.43 96.1527 281.574 94.9639 281.817 93.1096Z" fill="#F2F2F2"/>
<path d="M310.409 90.0128C310.653 88.1585 308.903 86.3409 306.501 85.9531C304.1 85.5652 301.956 86.754 301.713 88.6083C301.47 90.4626 303.22 92.2802 305.621 92.668C308.023 93.0559 310.166 91.8671 310.409 90.0128Z" fill="#F2F2F2"/>
<path d="M273.988 67.4165C274.231 65.5622 272.481 63.7446 270.08 63.3567C267.678 62.9689 265.534 64.1577 265.291 66.012C265.048 67.8664 266.798 69.684 269.2 70.0718C271.601 70.4596 273.745 69.2708 273.988 67.4165Z" fill="#F2F2F2"/>
<path d="M261.564 56.8922C261.575 55.1899 260.72 53.8026 259.653 53.7937C258.586 53.7847 257.712 55.1575 257.7 56.8598C257.689 58.5621 258.544 59.9494 259.611 59.9584C260.678 59.9673 261.552 58.5946 261.564 56.8922Z" fill="#F2F2F2"/>
<path d="M257.351 37.2898C257.362 35.5875 256.507 34.2002 255.44 34.1912C254.373 34.1823 253.499 35.555 253.487 37.2574C253.475 38.9597 254.331 40.347 255.398 40.3559C256.465 40.3649 257.339 38.9921 257.351 37.2898Z" fill="#F2F2F2"/>
<path d="M290.114 71.7888C290.126 70.0865 289.27 68.6992 288.203 68.6902C287.136 68.6813 286.262 70.054 286.25 71.7564C286.239 73.4587 287.094 74.8459 288.161 74.8549C289.228 74.8639 290.102 73.4911 290.114 71.7888Z" fill="#F2F2F2"/>
<path d="M276.297 79.4461C276.309 77.7437 275.453 76.3565 274.386 76.3475C273.319 76.3386 272.445 77.7113 272.434 79.4136C272.422 81.116 273.277 82.5032 274.344 82.5122C275.411 82.5211 276.286 81.1484 276.297 79.4461Z" fill="#F2F2F2"/>
<path d="M295.531 93.5987C295.542 91.8964 294.687 90.5091 293.62 90.5001C292.553 90.4912 291.679 91.864 291.667 93.5663C291.656 95.2686 292.511 96.6559 293.578 96.6648C294.645 96.6738 295.519 95.301 295.531 93.5987Z" fill="#F2F2F2"/>
<path d="M268.257 0H149.053C146.663 0 144.371 1.05399 142.68 2.93011C140.99 4.80623 140.041 7.3508 140.041 10.004C140.041 12.6573 140.99 15.2018 142.68 17.078C144.371 18.9541 146.663 20.0081 149.053 20.0081H268.257C270.647 20.0081 272.939 18.9541 274.63 17.078C276.32 15.2018 277.27 12.6573 277.27 10.004C277.27 7.3508 276.32 4.80623 274.63 2.93011C272.939 1.05399 270.647 0 268.257 0Z" fill="#E6E6E6"/>
<path d="M372.673 36.0047H44.6372C44.2629 35.9955 43.9068 35.8241 43.6451 35.527C43.3833 35.23 43.2368 34.8311 43.2368 34.4156C43.2368 34.0001 43.3833 33.6011 43.6451 33.3041C43.9068 33.0071 44.2629 32.8356 44.6372 32.8264H372.673C373.047 32.8356 373.403 33.0071 373.665 33.3041C373.927 33.6011 374.073 34.0001 374.073 34.4156C374.073 34.8311 373.927 35.23 373.665 35.527C373.403 35.8241 373.047 35.9955 372.673 36.0047Z" fill="#E6E6E6"/>
<path d="M61.0191 15.6768C63.7349 15.6768 65.9365 13.1787 65.9365 10.0971C65.9365 7.01549 63.7349 4.51736 61.0191 4.51736C58.3034 4.51736 56.1018 7.01549 56.1018 10.0971C56.1018 13.1787 58.3034 15.6768 61.0191 15.6768Z" fill="#E6E6E6"/>
<path d="M78.0063 15.6768C80.7221 15.6768 82.9237 13.1787 82.9237 10.0971C82.9237 7.01549 80.7221 4.51736 78.0063 4.51736C75.2906 4.51736 73.089 7.01549 73.089 10.0971C73.089 13.1787 75.2906 15.6768 78.0063 15.6768Z" fill="#E6E6E6"/>
<path d="M94.9935 15.6768C97.7093 15.6768 99.9108 13.1787 99.9108 10.0971C99.9108 7.01549 97.7093 4.51736 94.9935 4.51736C92.2777 4.51736 90.0762 7.01549 90.0762 10.0971C90.0762 13.1787 92.2777 15.6768 94.9935 15.6768Z" fill="#E6E6E6"/>
<path d="M114.363 14.5071C114.286 14.5072 114.209 14.4901 114.138 14.4568C114.066 14.4234 114.002 14.3746 113.948 14.313L110.63 10.5483C110.523 10.4277 110.464 10.2657 110.464 10.097C110.464 9.92825 110.523 9.76624 110.63 9.64567L113.948 5.88123C114.001 5.81975 114.064 5.77044 114.134 5.73613C114.204 5.70182 114.279 5.68318 114.356 5.68128C114.432 5.67939 114.508 5.69427 114.58 5.72509C114.651 5.7559 114.716 5.80204 114.771 5.86085C114.826 5.91966 114.871 5.98999 114.901 6.06781C114.932 6.14563 114.949 6.2294 114.95 6.31432C114.951 6.39925 114.938 6.48366 114.91 6.56271C114.882 6.64176 114.84 6.71389 114.787 6.77498L114.779 6.78383L111.859 10.097L114.779 13.4104C114.859 13.5013 114.913 13.6163 114.935 13.7411C114.956 13.8659 114.944 13.9949 114.899 14.112C114.855 14.2291 114.78 14.3291 114.685 14.3993C114.59 14.4696 114.478 14.5071 114.363 14.5071Z" fill="#E6E6E6"/>
<path d="M119.939 14.5071C119.824 14.5071 119.712 14.4696 119.617 14.3993C119.522 14.329 119.447 14.2291 119.403 14.112C119.359 13.9949 119.346 13.8658 119.368 13.741C119.389 13.6162 119.443 13.5012 119.523 13.4104L122.443 10.0969L119.523 6.7838C119.417 6.66107 119.359 6.49678 119.361 6.32668C119.364 6.15657 119.427 5.9944 119.536 5.87544C119.646 5.75647 119.793 5.69034 119.946 5.69142C120.1 5.6925 120.246 5.76071 120.355 5.88121L123.672 9.64564C123.779 9.76621 123.838 9.92822 123.838 10.0969C123.838 10.2657 123.779 10.4277 123.672 10.5482L120.355 14.313C120.3 14.3745 120.236 14.4234 120.164 14.4568C120.093 14.4901 120.016 14.5072 119.939 14.5071Z" fill="#E6E6E6"/>
<path d="M344.686 5.16339H338.517C338.35 5.16334 338.184 5.19983 338.03 5.27079C337.875 5.34175 337.735 5.44579 337.616 5.57696C337.498 5.70814 337.404 5.86388 337.34 6.0353C337.276 6.20671 337.243 6.39046 337.243 6.57602V13.4312C337.243 13.806 337.377 14.1655 337.616 14.4305C337.855 14.6956 338.178 14.8446 338.516 14.8447H344.686C345.025 14.8451 345.349 14.6965 345.589 14.4315C345.829 14.1665 345.964 13.8068 345.965 13.4312V6.57686C345.964 6.20128 345.829 5.84156 345.589 5.57659C345.349 5.31162 345.025 5.16303 344.686 5.16339Z" fill="#E6E6E6"/>
<path d="M329.568 5.16339H323.398C323.231 5.16334 323.066 5.19983 322.911 5.27079C322.757 5.34175 322.616 5.44579 322.498 5.57696C322.38 5.70814 322.286 5.86388 322.222 6.0353C322.158 6.20671 322.125 6.39046 322.125 6.57602V13.4312C322.125 13.806 322.259 14.1655 322.497 14.4305C322.736 14.6956 323.06 14.8446 323.398 14.8447H329.568C329.906 14.8451 330.231 14.6965 330.471 14.4315C330.71 14.1665 330.846 13.8068 330.847 13.4312V6.57686C330.846 6.20128 330.71 5.84156 330.471 5.57659C330.231 5.31162 329.906 5.16303 329.568 5.16339Z" fill="#E6E6E6"/>
<path d="M358.932 5.48608H352.763C352.596 5.48603 352.43 5.52252 352.276 5.59348C352.121 5.66444 351.981 5.76848 351.863 5.89966C351.744 6.03083 351.651 6.18657 351.587 6.35799C351.523 6.52941 351.49 6.71315 351.49 6.89871V13.7539C351.489 14.1287 351.623 14.4882 351.862 14.7532C352.101 15.0183 352.425 15.1673 352.762 15.1674H358.932C359.271 15.1678 359.595 15.0192 359.835 14.7542C360.075 14.4892 360.21 14.1295 360.212 13.7539V6.89955C360.21 6.52397 360.075 6.16425 359.835 5.89928C359.595 5.63431 359.271 5.48572 358.932 5.48608Z" fill="#E6E6E6"/>
<path d="M201.939 8.09357H152.624C152.42 8.0933 152.218 8.13761 152.029 8.22396C151.841 8.31031 151.67 8.43702 151.525 8.59685C151.381 8.75668 151.266 8.94649 151.188 9.15547C151.11 9.36444 151.07 9.58848 151.069 9.81479C151.069 10.0411 151.109 10.2652 151.187 10.4744C151.265 10.6836 151.379 10.8737 151.523 11.0339C151.667 11.1941 151.838 11.3213 152.026 11.4082C152.214 11.495 152.416 11.5399 152.62 11.5401H201.939C202.351 11.5401 202.746 11.3586 203.037 11.0354C203.328 10.7122 203.491 10.2739 203.491 9.81685C203.491 9.35981 203.328 8.92148 203.037 8.59831C202.746 8.27513 202.351 8.09357 201.939 8.09357Z" fill="white"/>
<path d="M75.976 342.41L81.7332 342.409L84.472 317.761L75.9749 317.761L75.976 342.41Z" fill="#A0616A"/>
<path d="M75.7732 349.076L93.4775 349.076V348.827C93.4774 346.798 92.7513 344.853 91.459 343.419C90.1667 341.984 88.4141 341.178 86.5865 341.178L83.3522 338.455L77.3184 341.179L75.7729 341.179L75.7732 349.076Z" fill="#2F2E41"/>
<path d="M50.9724 342.41L56.7296 342.409L59.4684 317.761L50.9713 317.761L50.9724 342.41Z" fill="#A0616A"/>
<path d="M50.7696 349.076L68.4739 349.076V348.827C68.4738 346.798 67.7477 344.853 66.4554 343.419C65.1631 341.984 63.4105 341.178 61.5829 341.178L58.3486 338.455L52.3148 341.179L50.7693 341.179L50.7696 349.076Z" fill="#2F2E41"/>
<path d="M93.0315 208.629C93.0315 208.629 99.585 218.77 94.8545 236.289C90.1241 253.809 96.2686 269.472 94.9408 272.612C93.613 275.753 90.94 278.736 93.1487 281.117C95.3574 283.498 96.5204 285.434 94.7759 286.08C93.0315 286.725 83.7278 331.905 83.7278 331.905L73.8427 332.55C73.8427 332.55 70.2617 311.563 74.0874 294.626C74.0874 294.626 73.2475 282.331 74.9988 278.719C76.7501 275.108 76.4067 278.365 76.2876 273.832C76.2218 270.553 75.7912 267.297 75.0056 264.135C74.4242 261.554 74.0874 235.534 74.0874 235.534L68.2142 270.256C67.8281 271.446 67.6832 272.715 67.7898 273.974C68.0279 275.753 68.03 278.411 67.7382 279.341C67.4464 280.271 67.1215 280.467 67.2839 282.305C67.4464 284.143 60.4687 330.318 60.4687 330.318H49.4206L44.1873 281.562C45.1287 280.404 45.9123 279.099 46.5132 277.689C47.6761 275.108 47.7214 274.965 47.1173 273.1C46.5132 271.235 46.5132 267.601 46.5132 266.514C46.5132 265.426 45.9091 216.053 53.4796 208.791C61.0501 201.529 93.0315 208.629 93.0315 208.629Z" fill="#2F2E41"/>
<path d="M59.1042 131.123L70.1411 127.949L75.293 120.062L87.528 121.731L90.1325 132.489L98.8429 138.101C98.8429 138.101 94.0285 194.622 95.1737 197.725C96.3189 200.829 93.54 203.425 90.0333 207.426C86.5266 211.426 92.947 206.963 93.7607 211.318C94.5744 215.674 100.506 220.283 93.7607 220.237C87.0152 220.192 49.9112 222.27 51.0742 217.107C52.2372 211.944 48.6193 210.53 50.3729 207.293C52.1266 204.056 53.3067 205.865 52.7166 201.088C52.1265 196.311 52.708 193.084 52.708 190.502C52.708 187.92 54.6563 164.46 54.6563 164.46L59.1042 131.123Z" fill="#E6E6E6"/>
<path d="M83.2471 118.712C90.6513 118.712 96.6535 112.049 96.6535 103.831C96.6535 95.6128 90.6513 88.9505 83.2471 88.9505C75.8429 88.9505 69.8407 95.6128 69.8407 103.831C69.8407 112.049 75.8429 118.712 83.2471 118.712Z" fill="#A0616A"/>
<path d="M74.4242 115.393C77.5932 112.643 73.2612 100.548 78.4945 103.13C78.4945 103.13 84.8908 98.6119 86.1759 101.581C87.6639 105.019 92.9559 103.459 96.2064 102.246C95.9509 101.586 95.7693 100.895 95.6656 100.187C96.2657 100.711 96.9014 101.184 97.567 101.6C98.0135 101.335 98.4086 100.976 98.73 100.542C99.0471 100.139 99.2455 99.6375 99.2985 99.1056C99.3515 98.5737 99.2566 98.0365 99.0266 97.5663C98.4858 96.6433 97.3693 96.3593 96.7123 95.5396C96.6363 95.4244 96.5868 95.2904 96.5677 95.1492C96.5487 95.0079 96.5609 94.8637 96.6031 94.7289C96.6814 94.3991 96.6933 94.0542 96.6378 93.7187C96.5823 93.3833 96.4608 93.0655 96.282 92.7882C96.1032 92.5108 95.8715 92.2806 95.6034 92.114C95.3353 91.9473 95.0374 91.8484 94.7309 91.8242C94.6076 91.8284 94.4853 91.7988 94.3747 91.7381C93.8231 91.3634 93.3136 90.917 92.8571 90.4086C93.6212 90.4495 94.3871 90.4258 95.1481 90.3376C95.3051 90.3182 95.4621 90.2988 95.6191 90.273C95.3283 89.5156 94.8936 88.8369 94.3446 88.2832C93.7956 87.7296 93.1454 87.3141 92.4384 87.0653C90.9457 86.5644 89.3923 86.3228 87.8331 86.3489C86.9318 86.3166 86.0305 86.2843 85.135 86.252C83.2358 86.102 81.3276 86.1756 79.4423 86.4715C77.4285 86.8793 75.5206 87.7757 73.8551 89.0967C72.1895 90.4177 70.8073 92.1307 69.8072 94.1133C67.836 98.0826 65.702 110.875 74.4242 115.393Z" fill="#2F2E41"/>
<path d="M98.7555 220.334C100.86 224.504 89.0041 225.73 76.1592 225.168C75.9108 224.113 75.4996 223.113 74.9439 222.212C73.5251 219.928 75.2405 204.47 73.1704 202.908C74.1066 205.425 70.3212 222.154 69.5303 224.73C57.9124 223.697 47.3237 221.354 47.4516 218.566C47.4865 217.752 49.9112 202.262 51.0858 201.088C52.2546 199.913 51.0742 177.736 51.0858 172.98C51.0916 168.216 57.4705 133.202 57.4705 131.911C57.4705 130.621 72.5889 124.166 72.5889 124.166L78.9852 164.828L88.7075 126.593C89.6582 128.028 90.7569 129.334 91.9813 130.485C93.9292 132.286 101.663 139.656 101.663 139.656L95.0398 194.053C95.0398 194.053 98.174 202.262 98.0112 205.522C97.9481 208.108 97.49 210.664 96.6563 213.08C95.7143 216.145 95.8132 214.5 98.7555 220.334Z" fill="#3F3D56"/>
<path d="M208.655 164.183C213.472 164.183 217.377 159.848 217.377 154.501C217.377 149.154 213.472 144.82 208.655 144.82C203.838 144.82 199.933 149.154 199.933 154.501C199.933 159.848 203.838 164.183 208.655 164.183Z" fill="white"/>
<path d="M6.41324e-05 349.232C-0.000207354 349.333 0.0173715 349.432 0.0517918 349.525C0.086212 349.618 0.136803 349.703 0.200675 349.774C0.264547 349.845 0.340445 349.902 0.424044 349.941C0.507643 349.98 0.597301 350 0.6879 350H416.618C416.802 350 416.978 349.919 417.107 349.775C417.237 349.631 417.31 349.436 417.31 349.232C417.31 349.028 417.237 348.833 417.107 348.689C416.978 348.545 416.802 348.464 416.618 348.464H0.692025C0.601423 348.464 0.51165 348.483 0.427842 348.521C0.344034 348.56 0.267831 348.616 0.203576 348.687C0.139322 348.758 0.088281 348.842 0.0533622 348.935C0.0184435 349.027 0.000331002 349.127 6.41324e-05 349.227V349.232Z" fill="#CCCCCC"/>
<path d="M212.435 153.21H209.818V150.306C209.818 149.964 209.695 149.635 209.477 149.393C209.259 149.151 208.963 149.015 208.655 149.015C208.347 149.015 208.051 149.151 207.833 149.393C207.615 149.635 207.492 149.964 207.492 150.306V153.21H204.875C204.567 153.21 204.271 153.346 204.053 153.588C203.835 153.83 203.712 154.159 203.712 154.501C203.712 154.844 203.835 155.172 204.053 155.414C204.271 155.656 204.567 155.792 204.875 155.792H207.492V158.696C207.492 159.039 207.615 159.367 207.833 159.609C208.051 159.851 208.347 159.987 208.655 159.987C208.963 159.987 209.259 159.851 209.477 159.609C209.695 159.367 209.818 159.039 209.818 158.696V155.792H212.435C212.743 155.792 213.039 155.656 213.257 155.414C213.475 155.172 213.598 154.844 213.598 154.501C213.598 154.159 213.475 153.83 213.257 153.588C213.039 153.346 212.743 153.21 212.435 153.21Z" fill="#3F3D56"/>
<path d="M352.903 182.886C351.872 181.425 350.762 180.035 349.578 178.724C345.785 174.514 341.281 171.174 336.325 168.895C331.368 166.616 326.056 165.444 320.692 165.444C315.327 165.444 310.015 166.616 305.058 168.895C300.102 171.174 295.598 174.514 291.805 178.724C291.734 178.803 291.669 178.887 291.598 178.966L291.593 178.96V206.364C291.492 206.362 291.393 206.356 291.292 206.356C290.387 206.358 289.483 206.424 288.586 206.555C288.258 205.089 287.626 203.729 286.739 202.583C285.853 201.437 284.737 200.537 283.481 199.956C282.226 199.375 280.865 199.127 279.508 199.235C278.15 199.342 276.835 199.8 275.666 200.573C274.497 201.346 273.507 202.411 272.775 203.685C272.044 204.959 271.592 206.404 271.454 207.907C271.316 209.409 271.498 210.927 271.983 212.338C272.469 213.748 273.245 215.014 274.25 216.032C273.747 216.802 273.287 217.605 272.872 218.437C271.682 218.212 270.463 218.263 269.292 218.588C268.121 218.913 267.023 219.504 266.069 220.324C265.114 221.144 264.324 222.176 263.747 223.353C263.17 224.529 262.82 225.827 262.718 227.162C262.616 228.497 262.766 229.841 263.156 231.108C263.547 232.376 264.171 233.54 264.988 234.526C265.805 235.512 266.797 236.3 267.903 236.838C269.008 237.376 270.202 237.654 271.409 237.653C271.447 237.653 271.482 237.648 271.52 237.647C272.123 239.494 272.935 241.248 273.937 242.868C273.241 243.952 272.755 245.184 272.509 246.486C272.262 247.788 272.26 249.133 272.502 250.436C272.745 251.739 273.227 252.973 273.919 254.059C274.611 255.146 275.497 256.063 276.522 256.752C277.548 257.442 278.69 257.889 279.878 258.066C281.067 258.243 282.275 258.146 283.428 257.781C284.581 257.417 285.653 256.792 286.579 255.946C287.504 255.1 288.263 254.051 288.806 252.865C289.631 252.975 290.461 253.031 291.292 253.033C291.393 253.033 291.492 253.026 291.593 253.025V300.552C291.593 301.059 291.728 301.555 291.982 301.977C292.236 302.398 292.596 302.727 293.018 302.921C293.44 303.115 293.905 303.166 294.353 303.067C294.801 302.968 295.212 302.724 295.535 302.365L345.914 246.446C354.434 239.046 359.957 228.192 361.268 216.273C362.578 204.353 359.569 192.343 352.903 182.886Z" fill="#F84D48"/>
<path d="M292.25 239.538C297.067 239.538 300.972 235.204 300.972 229.857C300.972 224.51 297.067 220.176 292.25 220.176C287.433 220.176 283.528 224.51 283.528 229.857C283.528 235.204 287.433 239.538 292.25 239.538Z" fill="#3F3D56"/>
<path d="M296.029 228.566H293.413V225.662C293.413 225.319 293.29 224.991 293.072 224.749C292.854 224.507 292.558 224.371 292.25 224.371C291.941 224.371 291.646 224.507 291.428 224.749C291.209 224.991 291.087 225.319 291.087 225.662V228.566H288.47C288.162 228.566 287.866 228.702 287.648 228.944C287.43 229.186 287.307 229.515 287.307 229.857C287.307 230.199 287.43 230.528 287.648 230.77C287.866 231.012 288.162 231.148 288.47 231.148H291.087V234.052C291.087 234.395 291.209 234.723 291.428 234.965C291.646 235.207 291.941 235.343 292.25 235.343C292.558 235.343 292.854 235.207 293.072 234.965C293.29 234.723 293.413 234.395 293.413 234.052V231.148H296.029C296.338 231.148 296.634 231.012 296.852 230.77C297.07 230.528 297.192 230.199 297.192 229.857C297.192 229.515 297.07 229.186 296.852 228.944C296.634 228.702 296.338 228.566 296.029 228.566Z" fill="#E03765"/>
</g>
<defs>
<clipPath id="clip0_22_500">
<rect width="417.31" height="350" fill="white"/>
</clipPath>
</defs>
</svg>
