<svg width="26" height="26" viewBox="0 0 26 26" fill="none" xmlns="http://www.w3.org/2000/svg">
<path d="M23.3565 11.6339L21.8831 9.92225C21.6015 9.59725 21.374 8.99058 21.374 8.55725V6.71558C21.374 5.56725 20.4315 4.62475 19.2831 4.62475H17.4415C17.019 4.62475 16.4015 4.39725 16.0765 4.11558L14.3648 2.64225C13.6173 2.00308 12.3931 2.00308 11.6348 2.64225L9.93396 4.12641C9.60896 4.39725 8.99146 4.62475 8.56896 4.62475H6.69479C5.54646 4.62475 4.60396 5.56725 4.60396 6.71558V8.56808C4.60396 8.99058 4.37646 9.59725 4.10562 9.92225L2.64313 11.6447C2.01479 12.3922 2.01479 13.6056 2.64313 14.3531L4.10562 16.0756C4.37646 16.4006 4.60396 17.0072 4.60396 17.4297V19.2822C4.60396 20.4306 5.54646 21.3731 6.69479 21.3731H8.56896C8.99146 21.3731 9.60896 21.6006 9.93396 21.8822L11.6456 23.3556C12.3931 23.9947 13.6173 23.9947 14.3756 23.3556L16.0873 21.8822C16.4123 21.6006 17.019 21.3731 17.4523 21.3731H19.294C20.4423 21.3731 21.3848 20.4306 21.3848 19.2822V17.4406C21.3848 17.0181 21.6123 16.4006 21.894 16.0756L23.3673 14.3639C23.9956 13.6164 23.9956 12.3814 23.3565 11.6339ZM17.5065 10.9514L12.274 16.1839C12.1216 16.3361 11.9151 16.4215 11.6998 16.4215C11.4845 16.4215 11.278 16.3361 11.1256 16.1839L8.50396 13.5622C8.35285 13.4093 8.26812 13.203 8.26812 12.9881C8.26812 12.7731 8.35285 12.5668 8.50396 12.4139C8.81812 12.0997 9.33812 12.0997 9.65229 12.4139L11.6998 14.4614L16.3581 9.80308C16.6723 9.48891 17.1923 9.48891 17.5065 9.80308C17.8206 10.1172 17.8206 10.6372 17.5065 10.9514Z" fill="#0066FF"/>
</svg>
